<svg width="30" height="30" viewBox="0 0 30 30" fill="none" xmlns="http://www.w3.org/2000/svg">
<path d="M23.7499 21.1251C25.2689 20.8167 26.619 19.9549 27.5383 18.707C28.4575 17.4591 28.8803 15.9141 28.7246 14.372C28.5688 12.8299 27.8456 11.4007 26.6953 10.3618C25.5451 9.32298 24.0499 8.74857 22.4999 8.75013H20.9249C20.5108 7.14678 19.705 5.67137 18.5798 4.45636C17.4546 3.24136 16.0453 2.32479 14.4784 1.78896C12.9116 1.25312 11.2361 1.1148 9.60259 1.38639C7.96904 1.65798 6.42851 2.331 5.1193 3.34502C3.81009 4.35903 2.7732 5.6823 2.10171 7.19602C1.43022 8.70974 1.14515 10.3665 1.27211 12.0176C1.39906 13.6687 1.93406 15.2624 2.82907 16.6557C3.72408 18.049 4.95108 19.1982 6.39992 20.0001" stroke="#152361" stroke-width="2" stroke-linecap="round" stroke-linejoin="round"/>
<path d="M16.25 13.75L11.25 21.25H18.75L13.75 28.75" stroke="#152361" stroke-width="2" stroke-linecap="round" stroke-linejoin="round"/>
</svg>
