<?xml version="1.0" encoding="UTF-8"?> <svg xmlns="http://www.w3.org/2000/svg" width="30" height="30" viewBox="0 0 30 30" fill="none"><path d="M13.9285 0C21.6085 0 27.8569 6.24844 27.8569 13.9284C27.8569 16.1841 27.3188 18.3216 26.3635 20.2087C26.1863 20.5706 25.8207 20.8144 25.3988 20.8144C24.8072 20.8144 24.3272 20.3353 24.3272 19.7428C24.3272 19.5591 24.3732 19.3856 24.4557 19.2347L24.4529 19.2403C25.2601 17.6447 25.7147 15.8438 25.7147 13.9284C25.7147 7.40719 20.4507 2.14313 13.9294 2.14313C7.40818 2.14313 2.14412 7.40719 2.14412 13.9284C2.14412 20.4366 7.38662 25.6875 13.8901 25.7091C15.8457 25.5319 17.5041 25.1906 19.0266 24.5391C19.1588 24.4762 19.3135 24.4397 19.4776 24.4397C20.0691 24.4397 20.5491 24.9187 20.5491 25.5112C20.5491 25.9622 20.2716 26.3466 19.8779 26.5059L19.8713 26.5088C18.0647 27.2822 16.1494 27.6637 14.0269 27.8522C13.9988 27.855 13.966 27.8569 13.9322 27.8569H13.9313C6.25131 27.8569 0.00287056 21.6084 0.00287056 13.9284C0.00287056 6.24844 6.25131 0 13.9313 0L13.9285 0Z" fill="white"></path><path d="M25.4409 18.6572C25.8787 18.6788 26.2462 18.96 26.3925 19.35L26.3953 19.3575L29.9288 28.5441C29.9738 28.6585 30 28.7897 30 28.9285C30 29.52 29.5209 30 28.9284 30C28.7906 30 28.6575 29.9738 28.5366 29.926L28.5441 29.9288L19.3416 26.3897C18.9262 26.236 18.6356 25.8432 18.6356 25.3829C18.6356 24.7913 19.1147 24.3113 19.7072 24.3113C19.8525 24.3113 19.9922 24.3404 20.1187 24.3929L27.0638 27.0647L24.3956 20.1282C24.3469 20.01 24.3187 19.8732 24.3187 19.7297C24.3187 19.1382 24.7987 18.6582 25.3903 18.6582C25.4081 18.6582 25.4269 18.6591 25.4447 18.6591H25.4419L25.4409 18.6572Z" fill="white"></path></svg> 