<?xml version="1.0" encoding="UTF-8"?> <svg xmlns="http://www.w3.org/2000/svg" width="30" height="30" viewBox="0 0 30 30" fill="none"><path fill-rule="evenodd" clip-rule="evenodd" d="M0.683996 3.70315L0.683667 3.70795C0.683417 3.71077 0.683114 3.71417 0.683114 3.71727C0.641643 5.78463 0.894879 7.82374 1.3687 9.77021C4.07929 20.909 14.0913 29.1732 26.0296 29.264C26.0834 29.2746 26.1461 29.2799 26.2096 29.2799H26.2255H26.2369C26.384 29.2799 26.5233 29.249 26.6498 29.1932C28.1208 28.9755 29.2837 27.7476 29.2837 26.2208V20.1008C29.2837 18.4234 27.9011 17.0408 26.2237 17.0408H22.1437C21.5482 17.0408 21.3912 17.265 21.2826 17.4201L21.2826 17.4201C21.2623 17.4491 21.2437 17.4756 21.2243 17.4979C21.1008 17.639 21.0161 17.7679 20.9252 17.9117C20.7521 18.1848 20.5758 18.5019 20.3932 18.8303L20.3932 18.8304L20.3658 18.8796C20.1675 19.2358 20.0316 19.4359 19.8832 19.6546C19.8499 19.7035 19.8161 19.7534 19.7808 19.8061C15.3805 17.797 11.934 14.5084 10.1578 10.1911C10.2183 10.1628 10.2735 10.1364 10.3286 10.11L10.3289 10.1099C10.4401 10.0568 10.5507 10.0039 10.7022 9.9361C11.1125 9.75168 11.5519 9.55404 11.9516 9.30786C12.1519 9.18433 12.3434 9.05374 12.5349 8.85345C12.7263 8.65315 12.9619 8.33727 12.9619 7.86168V3.78168C12.9619 2.10433 11.5793 0.721684 9.90194 0.721684H3.78194C2.10547 0.719037 0.743114 2.06639 0.683996 3.70315ZM3.78282 2.75904H9.90282C10.4861 2.75904 10.9228 3.1958 10.9228 3.77904V7.54139C10.9142 7.54749 10.9101 7.55067 10.9066 7.55343C10.9014 7.55745 10.8974 7.56056 10.8822 7.57051C10.6555 7.7108 10.2655 7.89521 9.86929 8.07257C9.80591 8.10094 9.74246 8.12911 9.67914 8.15722L9.67897 8.1573L9.67893 8.15732C9.3465 8.30491 9.01748 8.45099 8.71958 8.61698L8.68541 8.63612C8.52077 8.7282 8.36375 8.81601 8.16811 9.02815C8.064 9.14198 7.92723 9.3061 7.8637 9.60168C7.8187 9.81345 7.86194 10.0808 7.9537 10.2987L7.9237 10.2458C9.91164 15.7358 14.2819 19.814 19.7128 22.0623C19.8284 22.1108 19.9625 22.1399 20.1037 22.1399C20.3578 22.1399 20.5899 22.0473 20.7681 21.8937L20.7663 21.8946C21.3277 21.4146 21.6349 20.8336 21.9392 20.258C22.008 20.1278 22.0767 19.998 22.1481 19.8696C22.3255 19.552 22.4808 19.2776 22.6034 19.0782H26.2237C26.8069 19.0782 27.2437 19.5149 27.2437 20.0982V26.2182C27.2437 26.8014 26.8069 27.2382 26.2237 27.2382C15.1369 27.2382 5.85723 19.5864 3.34958 9.2858C2.91547 7.49992 2.68694 5.63815 2.72311 3.7711C2.74517 3.22757 3.20135 2.75727 3.78194 2.75727L3.78282 2.75904ZM22.7603 18.8426C22.7608 18.8403 22.7611 18.839 22.7613 18.839C22.7631 18.8364 22.7172 18.9026 22.6758 18.9634C22.7448 18.9111 22.7571 18.8568 22.7603 18.8426Z" fill="white"></path></svg> 