<?xml version="1.0" encoding="UTF-8"?> <svg xmlns="http://www.w3.org/2000/svg" width="193" height="54" viewBox="0 0 193 54" fill="none"><g clip-path="url(#clip0_16018_95596)"><path d="M109.601 17.1616C109.601 23.1107 112.293 26.3674 117.089 26.3674C121.938 26.3674 124.837 21.7485 124.837 21.7485L125.731 24.8072C125.937 25.5011 126.586 25.9864 127.312 25.9864H133.355C133.789 25.9864 134.142 25.6352 134.142 25.1988C134.142 24.9987 134.142 24.7859 134.142 24.5858C134.142 24.1516 133.789 23.7983 133.355 23.7983H133.346C131.95 23.7983 130.818 22.6659 130.818 21.2696L130.82 1.84907C130.82 1.3361 130.337 0.959353 129.839 1.08706L121.791 3.13256C121.442 3.22196 121.199 3.53485 121.197 3.89457V4.68637C121.197 5.12059 121.548 5.47392 121.984 5.47392V5.47392C123.381 5.47392 124.511 6.60842 124.507 8.00259L124.473 19.7392C124.473 19.7392 122.502 21.9614 119.615 21.9614C117.202 21.9614 115.91 19.9499 115.91 17.4532L115.899 1.83204C115.899 1.31907 115.414 0.942325 114.918 1.07004L106.864 3.13256C106.514 3.22196 106.272 3.53485 106.272 3.89457V4.68637C106.272 5.12059 106.623 5.47392 107.059 5.47392H107.066C108.458 5.47392 109.586 6.60203 109.588 7.99408L109.601 17.1616Z" fill="#00A885"></path><path fill-rule="evenodd" clip-rule="evenodd" d="M144.238 5.59329C144.238 5.59329 147.167 1.03403 151.758 1.03403C157.416 1.03403 161.366 6.04667 161.366 13.2283C161.366 20.9675 156.964 26.3718 150.664 26.3718C146.726 26.3718 144.238 22.7576 144.238 22.7576V28.2789C144.236 29.6774 145.37 30.8097 146.767 30.8076C147.203 30.8076 147.556 31.1588 147.556 31.5952V32.2103C147.558 32.6466 147.205 33 146.769 33H135.383C134.949 33 134.596 32.6466 134.596 32.2103V31.593C134.596 31.1567 134.949 30.8055 135.383 30.8055H135.39C136.786 30.8055 137.918 29.6731 137.918 28.2768V8.00489C137.918 6.61285 136.795 5.48474 135.403 5.47835H135.379C134.945 5.47835 134.594 5.12502 134.594 4.69081V3.89687C134.594 3.53715 134.836 3.22214 135.185 3.13274L143.252 1.05319C143.753 0.925474 144.238 1.30222 144.238 1.81732V5.59329ZM144.24 18.5964C144.24 18.5964 145.76 22.1957 149.225 22.1957C153.265 22.1957 155.061 17.7407 155.061 13.4517C155.061 9.21389 153.75 5.22932 149.481 5.22932C146.324 5.22932 144.238 7.97084 144.238 7.97084L144.236 18.5708L144.24 18.5964Z" fill="#00A885"></path><path d="M105.75 24.0432C105.593 23.8857 105.382 23.7985 105.159 23.7985H105.101C103.762 23.7985 102.672 22.7087 102.672 21.3698V14.4373C102.675 13.2581 102.677 11.3446 102.677 10.044C102.677 3.29453 99.4797 1 96.0337 1C91.1126 1 87.8283 5.22935 87.8283 5.22935L87.807 5.2485V1.81735C87.807 1.30225 87.3217 0.925502 86.8215 1.05321L78.7544 3.13277C78.4054 3.22216 78.1627 3.53718 78.1627 3.8969V4.69083C78.1627 5.12505 78.5139 5.47838 78.9481 5.47838H78.9694C80.3615 5.48477 81.4874 6.61288 81.4874 8.00492V21.2698C81.4874 22.6661 80.3551 23.7985 78.9588 23.7985H78.9524C78.5182 23.7985 78.1648 24.1497 78.1648 24.586C78.1648 24.7861 78.1648 25.0011 78.1648 25.2033C78.1648 25.6396 78.5182 25.993 78.9524 25.993H90.3378C90.7741 25.993 91.1275 25.6396 91.1253 25.2033V24.5881C91.1253 24.1518 90.772 23.8006 90.3356 23.8006V23.8006C88.9393 23.8027 87.8048 22.6703 87.807 21.2719V7.65372L87.8283 7.63243C87.8283 7.63243 89.9057 5.47625 92.494 5.47625C94.9098 5.47625 96.3529 7.16416 96.3529 9.99082V23.8368L96.3615 23.9389C96.4594 25.0883 97.4385 25.9866 98.5921 25.9866H105.156C105.616 25.9866 105.993 25.6119 105.993 25.1522V24.635C105.995 24.4115 105.908 24.2007 105.75 24.0432Z" fill="#0C8E77"></path><path fill-rule="evenodd" clip-rule="evenodd" d="M34.6879 5.59329C34.6879 5.59329 37.6167 1.03403 42.2079 1.03403C47.8655 1.03403 51.816 6.04667 51.8139 13.2283C51.8139 20.9675 47.4121 26.3718 41.1118 26.3718C37.174 26.3718 34.6858 22.7576 34.6858 22.7576V28.2789C34.6837 29.6774 35.8182 30.8097 37.2145 30.8076C37.6508 30.8076 38.0041 31.1588 38.0041 31.5952V32.2103C38.0063 32.6466 37.6529 33 37.2166 33H25.8312C25.397 33 25.0436 32.6466 25.0436 32.2103V31.593C25.0436 31.1567 25.397 30.8055 25.8312 30.8055H25.8376C27.2339 30.8055 28.3662 29.6731 28.3662 28.2768V8.00489C28.3662 6.61285 27.2424 5.48474 25.8503 5.47835H25.8291C25.3948 5.47835 25.0436 5.12502 25.0436 4.69081V3.89687C25.0436 3.53715 25.2863 3.22214 25.6354 3.13274L33.7024 1.05319C34.2026 0.925474 34.6879 1.30222 34.6879 1.81732V5.59329ZM34.6922 18.5964C34.6922 18.5964 36.2119 22.1957 39.6771 22.1957C43.717 22.1957 45.5135 17.7407 45.5135 13.4517C45.5135 9.21389 44.2023 5.22932 39.9326 5.22932C36.776 5.22932 34.69 7.97084 34.69 7.97084L34.6879 18.5708L34.6922 18.5964Z" fill="#0C8E77"></path><path fill-rule="evenodd" clip-rule="evenodd" d="M1 13.6984C1 6.69982 6.21272 1.02734 12.6451 1.02734C19.0774 1.02734 24.2923 6.69982 24.2901 13.6984C24.2901 20.6969 19.0753 26.3694 12.6451 26.3694C6.21485 26.3694 1 20.6969 1 13.6984ZM7.3685 13.8221C7.3685 19.0348 9.73114 23.2599 12.6451 23.2599C15.559 23.2599 17.9216 19.0348 17.9216 13.8221C17.9216 8.60939 15.559 4.3843 12.6451 4.3843C9.73114 4.3843 7.3685 8.60939 7.3685 13.8221Z" fill="#0C8E77"></path><path fill-rule="evenodd" clip-rule="evenodd" d="M75.932 18.1345L76.4961 18.5581C76.826 18.805 76.9218 19.2434 76.7217 19.6032C75.6085 21.6423 72.3561 26.3888 66.2048 26.3888H66.2005C59.1402 26.3867 54.9173 20.0799 54.9173 13.986C54.9173 5.08673 60.6919 1.04895 65.9791 1.04895H65.9855C73.3289 1.04895 75.5361 9.70772 75.7447 10.9912C75.8128 11.4084 75.5404 11.8064 75.1253 11.9001L60.6366 15.1503L60.6685 15.2482C60.6728 15.2631 61.1389 16.6977 62.3415 18.1089C63.4547 19.4137 65.4385 20.9697 68.5802 20.9718H68.5844C71.6495 20.9718 73.812 19.2434 74.8295 18.2132C75.1232 17.9174 75.5957 17.8833 75.932 18.1345ZM60.2109 10.1356C60.164 11.5425 60.3322 11.8235 60.3662 11.866L60.4067 11.9107L69.1293 10.0994V10.0291C69.1293 9.26499 69.0059 8.40295 68.7888 7.66436C68.4929 6.66183 68.0395 5.87215 67.4393 5.31448C66.7752 4.69721 65.9451 4.38432 64.9723 4.38432H64.9702C61.8158 4.38432 60.2875 7.74737 60.2109 10.1356Z" fill="#0C8E77"></path><path d="M101.76 35.246C101.951 35.246 102.097 35.3413 102.2 35.532C102.303 35.7227 102.354 35.9647 102.354 36.258C102.354 36.6247 102.303 36.9107 102.2 37.116C102.097 37.3067 101.936 37.4387 101.716 37.512C100.836 37.82 99.868 37.996 98.812 38.04C98.5187 39.2573 97.9613 40.24 97.14 40.988C96.3333 41.736 95.4387 42.11 94.456 42.11C92.9747 42.11 91.8967 41.5453 91.222 40.416C90.5473 39.2867 90.21 37.6513 90.21 35.51C90.21 33.618 90.4447 31.5647 90.914 29.35C91.3833 27.1207 92.0653 25.2287 92.96 23.674C93.8693 22.1047 94.9473 21.32 96.194 21.32C96.8687 21.32 97.4113 21.6133 97.822 22.2C98.2327 22.772 98.438 23.52 98.438 24.444C98.438 25.6467 98.2107 26.842 97.756 28.03C97.3013 29.218 96.546 30.4647 95.49 31.77C96.4727 31.8433 97.272 32.254 97.888 33.002C98.504 33.7353 98.8707 34.6447 98.988 35.73C99.6773 35.686 100.499 35.5393 101.452 35.29C101.54 35.2607 101.643 35.246 101.76 35.246ZM95.688 23.498C95.3947 23.498 95.072 23.938 94.72 24.818C94.3827 25.6833 94.0673 26.864 93.774 28.36C93.4807 29.856 93.2607 31.4913 93.114 33.266C94.082 31.4913 94.852 29.9293 95.424 28.58C96.0107 27.216 96.304 26.006 96.304 24.95C96.304 24.4807 96.2453 24.1213 96.128 23.872C96.0253 23.6227 95.8787 23.498 95.688 23.498ZM94.544 39.778C94.9987 39.778 95.402 39.5873 95.754 39.206C96.106 38.8247 96.3407 38.2747 96.458 37.556C96.0033 37.248 95.6513 36.8447 95.402 36.346C95.1673 35.8473 95.05 35.3193 95.05 34.762C95.05 34.5567 95.0793 34.278 95.138 33.926H95.072C94.4707 33.926 93.9647 34.2267 93.554 34.828C93.158 35.4147 92.96 36.2067 92.96 37.204C92.96 38.04 93.114 38.678 93.422 39.118C93.7447 39.558 94.1187 39.778 94.544 39.778Z" fill="#00A885"></path><path d="M102.016 42.11C101.459 42.11 101.063 41.8167 100.828 41.23C100.608 40.6433 100.498 39.7047 100.498 38.414C100.498 36.5073 100.77 34.696 101.312 32.98C101.444 32.5547 101.657 32.2467 101.95 32.056C102.258 31.8507 102.684 31.748 103.226 31.748C103.52 31.748 103.725 31.7847 103.842 31.858C103.96 31.9313 104.018 32.0707 104.018 32.276C104.018 32.5107 103.908 33.0387 103.688 33.86C103.542 34.4467 103.424 34.96 103.336 35.4C103.248 35.84 103.175 36.3827 103.116 37.028C103.6 35.7667 104.143 34.74 104.744 33.948C105.346 33.156 105.932 32.5913 106.504 32.254C107.091 31.9167 107.626 31.748 108.11 31.748C109.064 31.748 109.54 32.2247 109.54 33.178C109.54 33.3687 109.474 33.8307 109.342 34.564C109.225 35.1507 109.166 35.5173 109.166 35.664C109.166 36.1773 109.35 36.434 109.716 36.434C110.127 36.434 110.655 36.1113 111.3 35.466C111.491 35.2753 111.689 35.18 111.894 35.18C112.085 35.18 112.232 35.268 112.334 35.444C112.452 35.6053 112.51 35.8253 112.51 36.104C112.51 36.6467 112.364 37.072 112.07 37.38C111.66 37.8053 111.176 38.172 110.618 38.48C110.076 38.7733 109.496 38.92 108.88 38.92C108.103 38.92 107.509 38.722 107.098 38.326C106.702 37.93 106.504 37.3947 106.504 36.72C106.504 36.5 106.526 36.28 106.57 36.06C106.6 35.7667 106.614 35.5687 106.614 35.466C106.614 35.2313 106.534 35.114 106.372 35.114C106.152 35.114 105.859 35.3633 105.492 35.862C105.14 36.346 104.788 36.9913 104.436 37.798C104.084 38.6047 103.798 39.4553 103.578 40.35C103.417 41.0393 103.226 41.5087 103.006 41.758C102.801 41.9927 102.471 42.11 102.016 42.11Z" fill="#00A885"></path><path d="M113.172 42.11C112.263 42.11 111.537 41.78 110.994 41.12C110.451 40.46 110.18 39.5947 110.18 38.524C110.18 37.3507 110.451 36.2433 110.994 35.202C111.537 34.146 112.255 33.3027 113.15 32.672C114.059 32.0267 115.02 31.704 116.032 31.704C116.355 31.704 116.567 31.77 116.67 31.902C116.787 32.0193 116.883 32.2393 116.956 32.562C117.264 32.5033 117.587 32.474 117.924 32.474C118.643 32.474 119.002 32.7307 119.002 33.244C119.002 33.552 118.892 34.2853 118.672 35.444C118.335 37.1307 118.166 38.304 118.166 38.964C118.166 39.184 118.217 39.36 118.32 39.492C118.437 39.624 118.584 39.69 118.76 39.69C119.039 39.69 119.376 39.514 119.772 39.162C120.168 38.7953 120.703 38.2087 121.378 37.402C121.554 37.1967 121.752 37.094 121.972 37.094C122.163 37.094 122.309 37.182 122.412 37.358C122.529 37.534 122.588 37.776 122.588 38.084C122.588 38.6707 122.449 39.1253 122.17 39.448C121.569 40.196 120.931 40.8267 120.256 41.34C119.581 41.8533 118.929 42.11 118.298 42.11C117.814 42.11 117.367 41.9487 116.956 41.626C116.56 41.2887 116.259 40.834 116.054 40.262C115.291 41.494 114.331 42.11 113.172 42.11ZM113.964 39.888C114.287 39.888 114.595 39.6973 114.888 39.316C115.181 38.9347 115.394 38.4287 115.526 37.798L116.34 33.75C115.724 33.7647 115.152 33.9993 114.624 34.454C114.111 34.894 113.7 35.4807 113.392 36.214C113.084 36.9473 112.93 37.7247 112.93 38.546C112.93 39.0007 113.018 39.338 113.194 39.558C113.385 39.778 113.641 39.888 113.964 39.888Z" fill="#00A885"></path><path d="M122.362 42.11C121.805 42.11 121.409 41.8167 121.174 41.23C120.954 40.6433 120.844 39.7047 120.844 38.414C120.844 36.5073 121.115 34.696 121.658 32.98C121.79 32.5547 122.003 32.2467 122.296 32.056C122.604 31.8507 123.029 31.748 123.572 31.748C123.865 31.748 124.071 31.7847 124.188 31.858C124.305 31.9313 124.364 32.0707 124.364 32.276C124.364 32.5107 124.254 33.0387 124.034 33.86C123.887 34.4467 123.77 34.96 123.682 35.4C123.594 35.84 123.521 36.3827 123.462 37.028C123.946 35.7667 124.489 34.74 125.09 33.948C125.691 33.156 126.278 32.5913 126.85 32.254C127.437 31.9167 127.972 31.748 128.456 31.748C129.409 31.748 129.886 32.2247 129.886 33.178C129.886 33.75 129.725 34.784 129.402 36.28C129.123 37.556 128.984 38.3993 128.984 38.81C128.984 39.3967 129.197 39.69 129.622 39.69C129.915 39.69 130.26 39.514 130.656 39.162C131.067 38.7953 131.609 38.2087 132.284 37.402C132.46 37.1967 132.658 37.094 132.878 37.094C133.069 37.094 133.215 37.182 133.318 37.358C133.435 37.534 133.494 37.776 133.494 38.084C133.494 38.6707 133.355 39.1253 133.076 39.448C132.445 40.2253 131.763 40.8633 131.03 41.362C130.311 41.8607 129.49 42.11 128.566 42.11C127.818 42.11 127.253 41.8973 126.872 41.472C126.491 41.032 126.3 40.4013 126.3 39.58C126.3 39.1693 126.403 38.436 126.608 37.38C126.799 36.456 126.894 35.818 126.894 35.466C126.894 35.2313 126.813 35.114 126.652 35.114C126.461 35.114 126.19 35.3633 125.838 35.862C125.501 36.346 125.149 36.9913 124.782 37.798C124.43 38.6047 124.144 39.4553 123.924 40.35C123.763 41.0393 123.572 41.5087 123.352 41.758C123.147 41.9927 122.817 42.11 122.362 42.11Z" fill="#00A885"></path><path d="M144.21 37.094C144.401 37.094 144.548 37.182 144.65 37.358C144.768 37.534 144.826 37.776 144.826 38.084C144.826 38.6707 144.687 39.1253 144.408 39.448C143.807 40.1813 143.147 40.812 142.428 41.34C141.71 41.8533 140.998 42.11 140.294 42.11C139.18 42.11 138.329 41.4573 137.742 40.152C137.126 40.9293 136.584 41.45 136.114 41.714C135.66 41.978 135.124 42.11 134.508 42.11C133.614 42.11 132.873 41.78 132.286 41.12C131.714 40.4453 131.428 39.5727 131.428 38.502C131.428 37.3287 131.678 36.2433 132.176 35.246C132.675 34.234 133.357 33.4127 134.222 32.782C135.102 32.1367 136.085 31.7553 137.17 31.638C137.449 28.7927 137.977 26.3653 138.754 24.356C139.546 22.332 140.58 21.32 141.856 21.32C142.487 21.32 143.008 21.606 143.418 22.178C143.844 22.75 144.056 23.6153 144.056 24.774C144.056 26.4167 143.653 28.338 142.846 30.538C142.04 32.738 140.962 34.9967 139.612 37.314C139.671 38.1647 139.796 38.7733 139.986 39.14C140.192 39.5067 140.448 39.69 140.756 39.69C141.152 39.69 141.556 39.514 141.966 39.162C142.377 38.81 142.927 38.2233 143.616 37.402C143.792 37.1967 143.99 37.094 144.21 37.094ZM141.614 23.476C141.336 23.476 141.057 23.9747 140.778 24.972C140.5 25.9547 140.258 27.2453 140.052 28.844C139.862 30.4427 139.722 32.1147 139.634 33.86C141.277 30.2813 142.098 27.4067 142.098 25.236C142.098 24.6787 142.047 24.246 141.944 23.938C141.856 23.63 141.746 23.476 141.614 23.476ZM135.278 39.888C135.557 39.888 135.836 39.778 136.114 39.558C136.393 39.3233 136.745 38.898 137.17 38.282C137.024 37.49 136.95 36.6027 136.95 35.62C136.95 35.268 136.965 34.696 136.994 33.904C136.188 34.1533 135.513 34.696 134.97 35.532C134.442 36.3533 134.178 37.27 134.178 38.282C134.178 39.3527 134.545 39.888 135.278 39.888Z" fill="#00A885"></path><path d="M154.086 37.138C154.276 37.138 154.423 37.2333 154.526 37.424C154.643 37.6 154.702 37.8273 154.702 38.106C154.702 38.4433 154.65 38.7073 154.548 38.898C154.445 39.0887 154.284 39.2573 154.064 39.404C152.802 40.2547 151.878 40.8853 151.292 41.296L149.884 42.242C149.326 45.278 148.593 47.6613 147.684 49.392C146.789 51.1373 145.645 52.01 144.252 52.01C143.504 52.01 142.895 51.7753 142.426 51.306C141.956 50.8513 141.722 50.25 141.722 49.502C141.722 48.4607 142.132 47.3387 142.954 46.136C143.775 44.948 145.315 43.4813 147.574 41.736L147.706 40.878C147.456 41.274 147.126 41.582 146.716 41.802C146.32 42.0073 145.924 42.11 145.528 42.11C144.618 42.11 143.892 41.78 143.35 41.12C142.807 40.46 142.536 39.5947 142.536 38.524C142.536 37.3507 142.807 36.2433 143.35 35.202C143.892 34.146 144.611 33.3027 145.506 32.672C146.415 32.0267 147.376 31.704 148.388 31.704C148.71 31.704 148.923 31.77 149.026 31.902C149.143 32.0193 149.238 32.2393 149.312 32.562C149.59 32.5033 149.913 32.474 150.28 32.474C150.646 32.474 150.903 32.5327 151.05 32.65C151.211 32.7527 151.292 32.9653 151.292 33.288C151.292 33.464 151.284 33.6033 151.27 33.706C151.211 34.1607 151.028 35.312 150.72 37.16C150.661 37.512 150.595 37.9007 150.522 38.326C150.463 38.7367 150.397 39.1767 150.324 39.646C151.453 38.766 152.538 37.9887 153.58 37.314C153.77 37.1967 153.939 37.138 154.086 37.138ZM146.32 39.888C146.657 39.888 146.98 39.6827 147.288 39.272C147.596 38.8613 147.816 38.2747 147.948 37.512L148.652 33.75C148.05 33.7647 147.493 33.9993 146.98 34.454C146.466 34.894 146.056 35.4807 145.748 36.214C145.44 36.9473 145.286 37.7247 145.286 38.546C145.286 39.0007 145.374 39.338 145.55 39.558C145.74 39.778 145.997 39.888 146.32 39.888ZM144.494 49.876C144.86 49.876 145.271 49.436 145.726 48.556C146.195 47.676 146.642 46.2753 147.068 44.354C145.938 45.322 145.124 46.1947 144.626 46.972C144.127 47.7493 143.878 48.4313 143.878 49.018C143.878 49.2673 143.922 49.4727 144.01 49.634C144.112 49.7953 144.274 49.876 144.494 49.876Z" fill="#00A885"></path><path d="M155.357 42.11C154.697 42.11 154.154 41.8093 153.729 41.208C153.318 40.592 153.113 39.8293 153.113 38.92C153.113 37.82 153.186 36.8153 153.333 35.906C153.479 34.982 153.721 34.0067 154.059 32.98C154.205 32.54 154.411 32.2247 154.675 32.034C154.939 31.8433 155.357 31.748 155.929 31.748C156.251 31.748 156.471 31.7993 156.589 31.902C156.721 32.0047 156.787 32.1587 156.787 32.364C156.787 32.4813 156.706 32.8773 156.545 33.552C156.398 34.0947 156.281 34.586 156.193 35.026C155.899 36.566 155.753 37.5927 155.753 38.106C155.753 38.414 155.789 38.634 155.863 38.766C155.936 38.8833 156.053 38.942 156.215 38.942C156.435 38.942 156.706 38.722 157.029 38.282C157.366 37.842 157.718 37.1747 158.085 36.28C158.466 35.3853 158.833 34.2853 159.185 32.98C159.302 32.54 159.478 32.2247 159.713 32.034C159.962 31.8433 160.329 31.748 160.813 31.748C161.15 31.748 161.385 31.792 161.517 31.88C161.649 31.9533 161.715 32.1 161.715 32.32C161.715 32.6867 161.531 33.6913 161.165 35.334C160.754 37.2113 160.549 38.37 160.549 38.81C160.549 39.0887 160.607 39.3087 160.725 39.47C160.842 39.6167 160.996 39.69 161.187 39.69C161.48 39.69 161.825 39.514 162.221 39.162C162.631 38.7953 163.174 38.2087 163.849 37.402C164.025 37.1967 164.223 37.094 164.443 37.094C164.633 37.094 164.78 37.182 164.883 37.358C165 37.534 165.059 37.776 165.059 38.084C165.059 38.6707 164.919 39.1253 164.641 39.448C164.01 40.2253 163.328 40.8633 162.595 41.362C161.876 41.8607 161.055 42.11 160.131 42.11C159.427 42.11 158.906 41.8387 158.569 41.296C158.246 40.7533 158.085 39.9907 158.085 39.008C157.835 40.0053 157.461 40.7753 156.963 41.318C156.464 41.846 155.929 42.11 155.357 42.11Z" fill="#00A885"></path><path d="M166.157 30.296C165.541 30.296 165.079 30.1567 164.771 29.878C164.463 29.5847 164.309 29.1813 164.309 28.668C164.309 28.1547 164.507 27.7293 164.903 27.392C165.313 27.04 165.819 26.864 166.421 26.864C166.963 26.864 167.403 26.996 167.741 27.26C168.078 27.524 168.247 27.898 168.247 28.382C168.247 28.9687 168.056 29.438 167.675 29.79C167.293 30.1273 166.787 30.296 166.157 30.296ZM165.981 42.11C165.027 42.11 164.331 41.7727 163.891 41.098C163.465 40.4233 163.253 39.5287 163.253 38.414C163.253 37.754 163.333 36.9107 163.495 35.884C163.671 34.8427 163.891 33.8747 164.155 32.98C164.287 32.5107 164.463 32.188 164.683 32.012C164.903 31.836 165.255 31.748 165.739 31.748C166.487 31.748 166.861 31.9973 166.861 32.496C166.861 32.8627 166.721 33.7133 166.443 35.048C166.091 36.6613 165.915 37.754 165.915 38.326C165.915 38.766 165.973 39.1033 166.091 39.338C166.208 39.5727 166.406 39.69 166.685 39.69C166.949 39.69 167.279 39.5067 167.675 39.14C168.071 38.7733 168.599 38.194 169.259 37.402C169.435 37.1967 169.633 37.094 169.853 37.094C170.043 37.094 170.19 37.182 170.293 37.358C170.41 37.534 170.469 37.776 170.469 38.084C170.469 38.6707 170.329 39.1253 170.051 39.448C168.599 41.2227 167.242 42.11 165.981 42.11Z" fill="#00A885"></path><path d="M181.185 37.094C181.375 37.094 181.522 37.182 181.625 37.358C181.742 37.534 181.801 37.776 181.801 38.084C181.801 38.6707 181.661 39.1253 181.383 39.448C180.781 40.1813 180.121 40.812 179.403 41.34C178.684 41.8533 177.973 42.11 177.269 42.11C176.154 42.11 175.303 41.4573 174.717 40.152C174.101 40.9293 173.558 41.45 173.089 41.714C172.634 41.978 172.099 42.11 171.483 42.11C170.588 42.11 169.847 41.78 169.261 41.12C168.689 40.4453 168.403 39.5727 168.403 38.502C168.403 37.3287 168.652 36.2433 169.151 35.246C169.649 34.234 170.331 33.4127 171.197 32.782C172.077 32.1367 173.059 31.7553 174.145 31.638C174.423 28.7927 174.951 26.3653 175.729 24.356C176.521 22.332 177.555 21.32 178.831 21.32C179.461 21.32 179.982 21.606 180.393 22.178C180.818 22.75 181.031 23.6153 181.031 24.774C181.031 26.4167 180.627 28.338 179.821 30.538C179.014 32.738 177.936 34.9967 176.587 37.314C176.645 38.1647 176.77 38.7733 176.961 39.14C177.166 39.5067 177.423 39.69 177.731 39.69C178.127 39.69 178.53 39.514 178.941 39.162C179.351 38.81 179.901 38.2233 180.591 37.402C180.767 37.1967 180.965 37.094 181.185 37.094ZM178.589 23.476C178.31 23.476 178.031 23.9747 177.753 24.972C177.474 25.9547 177.232 27.2453 177.027 28.844C176.836 30.4427 176.697 32.1147 176.609 33.86C178.251 30.2813 179.073 27.4067 179.073 25.236C179.073 24.6787 179.021 24.246 178.919 23.938C178.831 23.63 178.721 23.476 178.589 23.476ZM172.253 39.888C172.531 39.888 172.81 39.778 173.089 39.558C173.367 39.3233 173.719 38.898 174.145 38.282C173.998 37.49 173.925 36.6027 173.925 35.62C173.925 35.268 173.939 34.696 173.969 33.904C173.162 34.1533 172.487 34.696 171.945 35.532C171.417 36.3533 171.153 37.27 171.153 38.282C171.153 39.3527 171.519 39.888 172.253 39.888Z" fill="#00A885"></path><path d="M189.823 37.094C190.014 37.094 190.16 37.182 190.263 37.358C190.38 37.534 190.439 37.776 190.439 38.084C190.439 38.6707 190.3 39.1253 190.021 39.448C189.478 40.108 188.708 40.7167 187.711 41.274C186.728 41.8313 185.672 42.11 184.543 42.11C183.003 42.11 181.808 41.692 180.957 40.856C180.106 40.02 179.681 38.876 179.681 37.424C179.681 36.412 179.894 35.4733 180.319 34.608C180.744 33.728 181.331 33.0313 182.079 32.518C182.842 32.0047 183.7 31.748 184.653 31.748C185.504 31.748 186.186 32.0047 186.699 32.518C187.212 33.0167 187.469 33.6987 187.469 34.564C187.469 35.576 187.102 36.4487 186.369 37.182C185.65 37.9007 184.426 38.4727 182.695 38.898C183.062 39.5727 183.758 39.91 184.785 39.91C185.445 39.91 186.193 39.6827 187.029 39.228C187.88 38.7587 188.613 38.15 189.229 37.402C189.405 37.1967 189.603 37.094 189.823 37.094ZM184.279 33.904C183.736 33.904 183.274 34.2193 182.893 34.85C182.526 35.4807 182.343 36.2433 182.343 37.138V37.182C183.208 36.9767 183.89 36.6687 184.389 36.258C184.888 35.8473 185.137 35.3707 185.137 34.828C185.137 34.5493 185.056 34.3293 184.895 34.168C184.748 33.992 184.543 33.904 184.279 33.904Z" fill="#00A885"></path><path fill-rule="evenodd" clip-rule="evenodd" d="M104.509 37.6341C104.485 37.688 104.461 37.7426 104.436 37.798C104.084 38.6047 103.798 39.4553 103.578 40.35C103.417 41.0393 103.226 41.5087 103.006 41.758C102.801 41.9927 102.471 42.11 102.016 42.11C101.459 42.11 101.063 41.8167 100.828 41.23C100.702 40.892 100.611 40.4373 100.558 39.8657C100.542 39.6955 100.529 39.5149 100.519 39.324C100.506 39.0525 100.499 38.7599 100.498 38.4464C100.498 38.4356 100.498 38.4248 100.498 38.414C100.498 38.2221 100.501 38.0312 100.507 37.8412C99.9695 37.9491 99.4046 38.0153 98.812 38.04C98.7813 38.1672 98.7478 38.2919 98.7114 38.414C98.6508 38.617 98.5823 38.8129 98.5058 39.0017C98.1881 39.786 97.7328 40.4481 97.14 40.988C96.3333 41.736 95.4387 42.11 94.456 42.11C92.9747 42.11 91.8967 41.5453 91.222 40.416C90.5473 39.2867 90.21 37.6513 90.21 35.51C90.21 33.618 90.4447 31.5647 90.914 29.35C91.3833 27.1207 92.0653 25.2287 92.96 23.674C93.0737 23.4777 93.1901 23.2938 93.3091 23.122C93.7904 22.4274 94.3149 21.9337 94.8826 21.6407C95.2967 21.4269 95.7339 21.32 96.194 21.32C96.8687 21.32 97.4113 21.6133 97.822 22.2C98.2327 22.772 98.438 23.52 98.438 24.444C98.438 25.5668 98.2398 26.6832 97.8436 27.7933C97.8154 27.8722 97.7862 27.9511 97.756 28.03C97.5948 28.4511 97.3959 28.8797 97.1591 29.3155C97.1575 29.3184 97.156 29.3214 97.1544 29.3243C97.0374 29.5393 96.9112 29.7561 96.7758 29.9747C96.4131 30.5602 95.9845 31.1587 95.49 31.77C95.7031 31.7859 95.9077 31.8177 96.1036 31.8653C96.1774 31.8833 96.2501 31.9035 96.3215 31.926C96.7195 32.0513 97.0794 32.2467 97.4012 32.5122C97.4112 32.5204 97.4211 32.5287 97.431 32.537C97.5931 32.674 97.7455 32.829 97.888 33.002C98.3171 33.5128 98.6252 34.109 98.8123 34.7906C98.8938 35.0876 98.9524 35.4007 98.988 35.73C99.226 35.7148 99.4798 35.6874 99.7493 35.6477C100.055 35.6027 100.381 35.542 100.727 35.4656C100.765 35.2237 100.808 34.9836 100.857 34.7452C100.907 34.4964 100.963 34.2495 101.023 34.0045C101.038 33.9448 101.054 33.8851 101.069 33.8256C101.115 33.6468 101.165 33.4691 101.217 33.2923C101.248 33.1878 101.28 33.0838 101.312 32.98C101.444 32.5547 101.657 32.2467 101.95 32.056C102.258 31.8507 102.684 31.748 103.226 31.748C103.52 31.748 103.725 31.7847 103.842 31.858C103.852 31.8639 103.861 31.8702 103.87 31.877C103.969 31.9542 104.018 32.0872 104.018 32.276C104.018 32.4478 103.96 32.7766 103.842 33.2626C103.799 33.4406 103.747 33.6398 103.688 33.86C103.668 33.942 103.648 34.0226 103.629 34.1018C103.563 34.3705 103.504 34.6226 103.451 34.8582C103.451 34.8582 103.451 34.8582 103.451 34.8582C103.409 35.0497 103.37 35.2303 103.336 35.4C103.325 35.4595 103.313 35.5209 103.302 35.5841C103.265 35.7891 103.231 36.0137 103.2 36.258C103.169 36.496 103.141 36.7526 103.116 37.028C103.219 36.7608 103.324 36.5041 103.432 36.258C103.549 35.99 103.67 35.7345 103.793 35.4914C103.897 35.2876 104.003 35.0925 104.111 34.9062C104.118 34.8947 104.124 34.8833 104.131 34.8719C104.133 34.8694 104.134 34.8668 104.136 34.8643C104.294 34.5944 104.457 34.3431 104.624 34.1106C104.628 34.1059 104.631 34.1012 104.634 34.0965C104.671 34.0461 104.708 33.9966 104.744 33.948C104.877 33.7737 105.008 33.6104 105.139 33.4581C105.43 33.1203 105.717 32.8366 106 32.6072C106.17 32.4701 106.338 32.3524 106.504 32.254C107.091 31.9167 107.626 31.748 108.11 31.748C109.064 31.748 109.54 32.2247 109.54 33.178C109.54 33.294 109.516 33.5105 109.467 33.8275C109.443 33.9814 109.414 34.1589 109.379 34.3601C109.378 34.3637 109.377 34.3673 109.377 34.3709C109.369 34.4125 109.362 34.4552 109.354 34.4989C109.35 34.5203 109.346 34.5421 109.342 34.564C109.225 35.1507 109.166 35.5173 109.166 35.664C109.166 36.1773 109.35 36.434 109.716 36.434C109.922 36.434 110.158 36.3528 110.423 36.1903C110.452 36.1728 110.481 36.1544 110.51 36.135C110.511 36.1344 110.512 36.1339 110.512 36.1333C110.521 36.1278 110.529 36.1223 110.537 36.1166C110.543 36.1125 110.55 36.1083 110.556 36.104C110.574 36.0911 110.593 36.0779 110.612 36.0642C110.619 36.0463 110.626 36.0283 110.632 36.0104C110.634 36.0058 110.636 36.0012 110.638 35.9966C110.68 35.885 110.725 35.7741 110.773 35.664C110.841 35.5086 110.915 35.3546 110.994 35.202C110.997 35.197 110.999 35.1921 111.002 35.1871C111.004 35.1828 111.006 35.1784 111.009 35.1741C111.052 35.0895 111.098 35.0062 111.144 34.9243C111.15 34.9133 111.156 34.9024 111.162 34.8916C111.232 34.7698 111.304 34.651 111.378 34.5353C111.539 34.2866 111.711 34.0521 111.894 33.8317C112.07 33.6219 112.255 33.4249 112.452 33.2408C112.671 33.0351 112.904 32.8455 113.15 32.672C114.059 32.0267 115.02 31.704 116.032 31.704C116.184 31.704 116.311 31.7186 116.414 31.7477C116.53 31.7806 116.616 31.832 116.67 31.902C116.787 32.0193 116.883 32.2393 116.956 32.562C117.264 32.5033 117.587 32.474 117.924 32.474C118.211 32.474 118.44 32.5148 118.612 32.5963C118.872 32.7194 119.002 32.9353 119.002 33.244C119.002 33.552 118.892 34.2853 118.672 35.444C118.335 37.1307 118.166 38.304 118.166 38.964C118.166 39.184 118.217 39.36 118.32 39.492C118.437 39.624 118.584 39.69 118.76 39.69C118.8 39.69 118.84 39.6865 118.882 39.6794C119.051 39.6509 119.238 39.5653 119.444 39.4224C119.549 39.3502 119.658 39.2634 119.772 39.162C119.837 39.1019 119.906 39.0359 119.978 38.964C120.032 38.9101 120.089 38.8529 120.147 38.7924C120.156 38.7836 120.164 38.7747 120.173 38.7657C120.276 38.6586 120.385 38.5413 120.501 38.414C120.546 38.3645 120.592 38.3134 120.639 38.2608C120.646 38.2523 120.654 38.2438 120.661 38.2352C120.676 38.2183 120.692 38.2013 120.707 38.1842C120.736 38.1514 120.765 38.118 120.795 38.084C120.813 38.0641 120.83 38.0439 120.848 38.0236C120.855 37.6786 120.87 37.3368 120.895 36.9982C120.896 36.995 120.896 36.9919 120.896 36.9887C120.94 36.3946 121.011 35.8103 121.11 35.2356C121.243 34.4663 121.426 33.7144 121.658 32.98C121.79 32.5547 122.003 32.2467 122.296 32.056C122.604 31.8507 123.029 31.748 123.572 31.748C123.865 31.748 124.071 31.7847 124.188 31.858C124.198 31.8639 124.207 31.8702 124.215 31.877C124.315 31.9542 124.364 32.0872 124.364 32.276C124.364 32.4478 124.305 32.7766 124.187 33.2626C124.144 33.4406 124.093 33.6398 124.034 33.86C123.887 34.4467 123.77 34.96 123.682 35.4C123.668 35.4683 123.655 35.539 123.642 35.6122C123.636 35.6469 123.63 35.6821 123.624 35.7178C123.579 35.9903 123.538 36.295 123.501 36.6319C123.498 36.6638 123.495 36.6961 123.491 36.7286C123.481 36.8258 123.471 36.9256 123.462 37.028C123.51 36.9033 123.558 36.7809 123.607 36.6608C123.626 36.6146 123.645 36.5688 123.664 36.5233C123.739 36.343 123.816 36.168 123.894 35.9982C123.974 35.8237 124.056 35.6547 124.139 35.4914C124.244 35.2857 124.351 35.089 124.46 34.9012C124.461 34.8983 124.463 34.8954 124.465 34.8925C124.628 34.6119 124.796 34.3512 124.97 34.1106C124.973 34.1059 124.977 34.1012 124.98 34.0965C125.017 34.0461 125.053 33.9966 125.09 33.948C125.236 33.7554 125.382 33.5761 125.526 33.4104C125.803 33.0935 126.076 32.8258 126.346 32.6072C126.515 32.4701 126.683 32.3524 126.85 32.254C127.437 31.9167 127.972 31.748 128.456 31.748C129.409 31.748 129.886 32.2247 129.886 33.178C129.886 33.75 129.725 34.784 129.402 36.28C129.123 37.556 128.984 38.3993 128.984 38.81C128.984 39.3492 129.164 39.6406 129.523 39.6842C129.555 39.6881 129.588 39.69 129.622 39.69C129.785 39.69 129.963 39.6359 130.157 39.5278C130.313 39.4409 130.48 39.3189 130.656 39.162C130.848 38.9903 131.07 38.7703 131.32 38.502C131.356 38.4637 131.392 38.4244 131.429 38.3841C131.429 38.356 131.43 38.328 131.431 38.3C131.443 37.7958 131.502 37.3081 131.609 36.837C131.609 36.8331 131.61 36.8292 131.611 36.8253C131.736 36.2764 131.924 35.75 132.176 35.246C132.187 35.2231 132.199 35.2003 132.21 35.1777C132.706 34.197 133.376 33.3984 134.222 32.782C135.102 32.1367 136.085 31.7553 137.17 31.638C137.449 28.7927 137.977 26.3653 138.754 24.356C138.911 23.9547 139.078 23.5932 139.254 23.2714C139.61 22.6199 140.006 22.1314 140.441 21.8062C140.874 21.4821 141.346 21.32 141.856 21.32C142.487 21.32 143.008 21.606 143.418 22.178C143.767 22.6469 143.973 23.3128 144.035 24.1758C144.049 24.3657 144.056 24.5651 144.056 24.774C144.056 24.9256 144.053 25.0796 144.046 25.236C143.978 26.7737 143.578 28.5411 142.846 30.538C142.501 31.4789 142.107 32.4306 141.662 33.3929C141.577 33.5779 141.49 33.7633 141.401 33.9491C141.307 34.1451 141.211 34.3416 141.113 34.5386C141.102 34.5601 141.091 34.5817 141.08 34.6033C140.633 35.4977 140.144 36.4013 139.612 37.314C139.671 38.1647 139.796 38.7733 139.986 39.14C140.161 39.4524 140.373 39.6317 140.623 39.6779C140.666 39.686 140.711 39.69 140.756 39.69C141.069 39.69 141.387 39.5799 141.71 39.3597C141.795 39.3015 141.88 39.2356 141.966 39.162C142.133 39.0189 142.323 38.8369 142.536 38.6162C142.536 38.5968 142.536 38.5773 142.536 38.5577C142.536 38.5465 142.536 38.5353 142.536 38.524C142.536 37.8943 142.614 37.2836 142.77 36.6919C142.771 36.6878 142.772 36.6837 142.773 36.6796C142.904 36.1874 143.089 35.7084 143.329 35.2425C143.336 35.229 143.343 35.2155 143.35 35.202C143.892 34.146 144.611 33.3027 145.506 32.672C146.415 32.0267 147.376 31.704 148.388 31.704C148.537 31.704 148.663 31.7182 148.766 31.7466C148.884 31.7795 148.971 31.8313 149.026 31.902C149.143 32.0193 149.238 32.2393 149.312 32.562C149.59 32.5033 149.913 32.474 150.28 32.474C150.548 32.474 150.757 32.5054 150.908 32.5681C150.963 32.5912 151.01 32.6185 151.05 32.65C151.211 32.7527 151.292 32.9653 151.292 33.288C151.292 33.464 151.284 33.6033 151.27 33.706C151.215 34.131 151.051 35.1646 150.778 36.8069C150.759 36.9217 150.74 37.0393 150.72 37.16C150.661 37.512 150.595 37.9007 150.522 38.326C150.468 38.6994 150.409 39.0971 150.343 39.519C150.337 39.5611 150.33 39.6034 150.324 39.646C150.589 39.4389 150.853 39.2375 151.114 39.0418C151.168 39.001 151.222 38.9604 151.277 38.92C151.448 38.7923 151.619 38.6671 151.788 38.5444C151.803 38.534 151.817 38.5235 151.832 38.5131C151.957 38.4225 152.082 38.3333 152.206 38.2454C152.342 38.149 152.478 38.0542 152.613 37.961C152.794 37.8364 152.973 37.7147 153.151 37.596C153.168 37.3092 153.191 37.03 153.22 36.7583C153.22 36.7499 153.221 36.7416 153.222 36.7333C153.253 36.4493 153.289 36.1735 153.333 35.906C153.369 35.6786 153.411 35.448 153.458 35.2143C153.604 34.4987 153.804 33.7539 154.059 32.98C154.205 32.54 154.411 32.2247 154.675 32.034C154.939 31.8433 155.357 31.748 155.929 31.748C156.251 31.748 156.471 31.7993 156.589 31.902C156.721 32.0047 156.787 32.1587 156.787 32.364C156.787 32.4813 156.706 32.8773 156.545 33.552C156.398 34.0947 156.281 34.586 156.193 35.026C156.122 35.3966 156.06 35.7374 156.006 36.0486C156.006 36.0506 156.006 36.0526 156.005 36.0546C155.979 36.2052 155.955 36.3488 155.934 36.4854C155.923 36.5528 155.912 36.6186 155.903 36.6826C155.887 36.7865 155.872 36.886 155.858 36.981C155.84 37.1118 155.824 37.234 155.81 37.3478C155.809 37.3604 155.807 37.3729 155.806 37.3852C155.77 37.6874 155.753 37.9277 155.753 38.106C155.753 38.414 155.789 38.634 155.863 38.766C155.905 38.834 155.962 38.8823 156.034 38.9109C156.087 38.9316 156.147 38.942 156.215 38.942C156.346 38.942 156.496 38.8634 156.664 38.7062C156.679 38.6927 156.693 38.6786 156.708 38.6638C156.728 38.6436 156.749 38.6223 156.77 38.5999C156.852 38.5112 156.938 38.4052 157.029 38.282C157.071 38.2269 157.113 38.1682 157.156 38.106C157.177 38.0758 157.198 38.0447 157.218 38.0128C157.251 37.963 157.284 37.9113 157.316 37.8574C157.369 37.7715 157.421 37.6804 157.474 37.5841C157.626 37.3089 157.78 36.9912 157.936 36.631C157.986 36.5182 158.035 36.4012 158.085 36.28C158.466 35.3853 158.833 34.2853 159.185 32.98C159.302 32.54 159.478 32.2247 159.713 32.034C159.962 31.8433 160.329 31.748 160.813 31.748C161.15 31.748 161.385 31.792 161.517 31.88C161.649 31.9533 161.715 32.1 161.715 32.32C161.715 32.6867 161.531 33.6913 161.165 35.334C160.754 37.2113 160.549 38.37 160.549 38.81C160.549 39.0887 160.607 39.3087 160.725 39.47C160.842 39.6167 160.996 39.69 161.187 39.69C161.235 39.69 161.284 39.6853 161.335 39.6758C161.456 39.6533 161.585 39.604 161.722 39.5278C161.878 39.4408 162.044 39.3189 162.221 39.162C162.434 38.9718 162.682 38.7225 162.966 38.414C163.012 38.3636 163.06 38.3117 163.108 38.2581C163.117 38.2479 163.127 38.2376 163.136 38.2272C163.149 38.2125 163.162 38.1977 163.176 38.1828C163.203 38.1522 163.231 38.121 163.259 38.0894C163.259 38.0876 163.259 38.0858 163.259 38.084C163.271 37.7548 163.299 37.3871 163.345 36.9809C163.345 36.9777 163.346 36.9745 163.346 36.9713C163.384 36.6352 163.434 36.2727 163.495 35.884C163.532 35.6608 163.572 35.441 163.614 35.2246C163.767 34.4311 163.947 33.6829 164.155 32.98C164.275 32.5507 164.433 32.2441 164.627 32.0603C164.646 32.0431 164.664 32.027 164.683 32.012C164.903 31.836 165.255 31.748 165.739 31.748C165.894 31.748 166.034 31.7588 166.157 31.7803C166.52 31.844 166.743 32.0015 166.825 32.2529C166.849 32.326 166.861 32.407 166.861 32.496C166.861 32.8627 166.721 33.7133 166.443 35.048C166.378 35.345 166.319 35.6243 166.266 35.886C166.221 36.1092 166.18 36.3196 166.144 36.5171C166.137 36.5568 166.13 36.596 166.123 36.6347C166.012 37.2484 165.945 37.7315 165.923 38.084C165.918 38.173 165.915 38.2537 165.915 38.326C165.915 38.766 165.973 39.1033 166.091 39.338C166.179 39.5154 166.314 39.6258 166.495 39.669C166.554 39.683 166.617 39.69 166.685 39.69C166.718 39.69 166.753 39.6871 166.788 39.6812C166.918 39.6596 167.063 39.5986 167.222 39.498C167.362 39.4094 167.513 39.29 167.675 39.14C167.856 38.972 168.065 38.7593 168.302 38.502C168.335 38.4659 168.369 38.429 168.404 38.3911C168.404 38.3605 168.405 38.3299 168.405 38.2994C168.418 37.796 168.477 37.3092 168.583 36.8387C168.584 36.8342 168.585 36.8297 168.586 36.8253C168.711 36.2764 168.899 35.75 169.151 35.246C169.162 35.2231 169.173 35.2003 169.185 35.1777C169.68 34.197 170.351 33.3984 171.197 32.782C172.077 32.1367 173.059 31.7553 174.145 31.638C174.423 28.7927 174.951 26.3653 175.729 24.356C175.886 23.9547 176.052 23.5932 176.228 23.2714C176.585 22.62 176.98 22.1315 177.415 21.8063C177.848 21.4821 178.32 21.32 178.831 21.32C179.461 21.32 179.982 21.606 180.393 22.178C180.741 22.6469 180.947 23.3128 181.01 24.1759C181.024 24.3657 181.031 24.5651 181.031 24.774C181.031 24.9256 181.027 25.0796 181.021 25.236C180.953 26.7737 180.553 28.5411 179.821 30.538C179.476 31.4789 179.081 32.4306 178.637 33.3929C178.552 33.5779 178.464 33.7633 178.375 33.9491C178.281 34.1451 178.185 34.3416 178.087 34.5386C178.076 34.5601 178.066 34.5817 178.055 34.6033C177.608 35.4977 177.118 36.4013 176.587 37.314C176.645 38.1647 176.77 38.7733 176.961 39.14C177.166 39.5067 177.423 39.69 177.731 39.69C177.817 39.69 177.904 39.6817 177.991 39.6649C178.219 39.621 178.451 39.5192 178.684 39.3597C178.769 39.3015 178.855 39.2356 178.941 39.162C179.167 38.968 179.436 38.7026 179.747 38.366C179.744 38.3436 179.74 38.3211 179.737 38.2985C179.7 38.0206 179.681 37.7291 179.681 37.424C179.681 37.1688 179.695 36.9184 179.722 36.6725C179.722 36.6678 179.723 36.6631 179.723 36.6584C179.773 36.2126 179.868 35.7821 180.007 35.3671C180.094 35.1081 180.198 34.855 180.319 34.608C180.744 33.728 181.331 33.0313 182.079 32.518C182.842 32.0047 183.7 31.748 184.653 31.748C185.504 31.748 186.186 32.0047 186.699 32.518C187.212 33.0167 187.469 33.6987 187.469 34.564C187.469 35.576 187.102 36.4487 186.369 37.182C186.251 37.2998 186.12 37.4137 185.975 37.5236C185.967 37.5293 185.96 37.535 185.952 37.5407C185.851 37.6166 185.743 37.6906 185.628 37.7627C185.378 37.9201 185.097 38.0684 184.785 38.2078C184.479 38.3445 184.143 38.4725 183.777 38.5918C183.456 38.6962 183.113 38.794 182.747 38.8851C182.73 38.8894 182.712 38.8937 182.695 38.898C182.723 38.9501 182.754 39.0002 182.786 39.0483C182.802 39.0728 182.819 39.0968 182.837 39.1203C183.015 39.36 183.247 39.5452 183.532 39.6758C183.874 39.8319 184.291 39.91 184.785 39.91C185.445 39.91 186.193 39.6827 187.029 39.228C187.034 39.2252 187.039 39.2223 187.044 39.2195C187.543 38.9431 188.001 38.6188 188.418 38.2465C188.422 38.2428 188.426 38.2392 188.43 38.2355C188.438 38.2286 188.446 38.2218 188.453 38.2148C188.458 38.2104 188.463 38.206 188.468 38.2015C188.474 38.1962 188.48 38.1909 188.486 38.1856C188.498 38.1747 188.509 38.1637 188.521 38.1528C188.546 38.13 188.57 38.1071 188.595 38.084C188.818 37.8712 189.03 37.6439 189.229 37.402C189.405 37.1967 189.603 37.094 189.823 37.094C190.014 37.094 190.16 37.182 190.263 37.358C190.38 37.534 190.439 37.776 190.439 38.084C190.439 38.1894 190.435 38.2905 190.426 38.3874C190.424 38.3998 190.423 38.4122 190.422 38.4244C190.399 38.6421 190.353 38.8378 190.283 39.0115C190.217 39.177 190.129 39.3225 190.021 39.448C189.963 39.5186 189.902 39.5886 189.839 39.658C189.311 40.2376 188.602 40.7763 187.711 41.274C186.728 41.8313 185.672 42.11 184.543 42.11C183.599 42.11 182.785 41.9531 182.1 41.6392C181.668 41.4408 181.287 41.1798 180.957 40.856C180.811 40.7121 180.677 40.5592 180.556 40.397C180.55 40.3891 180.544 40.3811 180.538 40.3731C180.436 40.4728 180.333 40.5699 180.229 40.6646C180.124 40.76 180.017 40.8528 179.909 40.9431C179.744 41.0813 179.575 41.2136 179.403 41.34C179.259 41.443 179.115 41.5357 178.971 41.618C178.399 41.946 177.832 42.11 177.269 42.11C176.794 42.11 176.368 41.9918 175.989 41.7554C175.575 41.4966 175.217 41.0962 174.917 40.5542C174.847 40.4278 174.781 40.2938 174.717 40.152C174.52 40.4 174.331 40.6219 174.15 40.8177C174.138 40.8306 174.126 40.8434 174.114 40.8562C173.795 41.1952 173.5 41.453 173.228 41.6296C173.181 41.6602 173.134 41.6883 173.089 41.714C173.021 41.7536 172.951 41.7902 172.879 41.8238C172.472 42.0146 172.007 42.11 171.483 42.11C171.122 42.11 170.786 42.0563 170.475 41.9488C170.015 41.79 169.611 41.5137 169.261 41.12C169.145 40.9833 169.041 40.8384 168.948 40.6853C168.943 40.6762 168.937 40.667 168.932 40.6577C168.748 40.8291 168.567 40.9852 168.387 41.1262C168.014 41.4181 167.649 41.645 167.29 41.807C166.843 42.009 166.406 42.11 165.981 42.11C165.626 42.11 165.307 42.0633 165.023 41.9698C164.544 41.8121 164.167 41.5215 163.891 41.098C163.791 40.9398 163.703 40.7695 163.627 40.5871C163.622 40.575 163.617 40.563 163.612 40.5509C163.584 40.5764 163.556 40.6017 163.528 40.6268C163.527 40.6277 163.526 40.6287 163.525 40.6297C163.298 40.8344 163.065 41.0239 162.827 41.1982C162.75 41.2544 162.673 41.309 162.595 41.362C162.389 41.5048 162.175 41.6271 161.952 41.729C161.397 41.983 160.79 42.11 160.131 42.11C159.715 42.11 159.363 42.0154 159.075 41.8261C158.876 41.6949 158.707 41.5182 158.569 41.296C158.37 40.962 158.233 40.5445 158.156 40.0437C158.112 39.7543 158.088 39.437 158.085 39.0919C158.085 39.0801 158.085 39.0683 158.085 39.0565C158.085 39.0404 158.085 39.0242 158.085 39.008C158.081 39.0217 158.078 39.0353 158.074 39.0488C158.072 39.0586 158.069 39.0683 158.067 39.078C157.917 39.6561 157.725 40.1562 157.49 40.5782C157.333 40.8595 157.157 41.1061 156.963 41.318C156.825 41.4639 156.684 41.5897 156.541 41.6953C156.165 41.9718 155.771 42.11 155.357 42.11C154.923 42.11 154.54 41.9803 154.208 41.7208C154.034 41.5853 153.875 41.4143 153.729 41.208C153.489 40.8483 153.319 40.4386 153.219 39.9789C153.219 39.9777 153.219 39.9765 153.218 39.9753C152.502 40.461 151.928 40.8534 151.497 41.1525C151.493 41.1559 151.488 41.1593 151.483 41.1627C151.416 41.2094 151.352 41.2539 151.292 41.296L149.884 42.242C149.863 42.3531 149.843 42.4633 149.822 42.5726C149.272 45.4515 148.56 47.7247 147.684 49.392C146.789 51.1373 145.645 52.01 144.252 52.01C143.504 52.01 142.895 51.7753 142.426 51.306C141.956 50.8513 141.722 50.25 141.722 49.502C141.722 48.9822 141.824 48.4423 142.029 47.8822C142.234 47.3204 142.542 46.7383 142.954 46.136C142.991 46.0824 143.029 46.0283 143.069 45.9735C143.489 45.3992 144.069 44.7623 144.811 44.063C145.035 43.8517 145.274 43.6347 145.528 43.412C145.664 43.2925 145.804 43.1713 145.949 43.0485C146.259 42.7845 146.59 42.5129 146.939 42.2338C146.941 42.2324 146.943 42.231 146.945 42.2296C147.148 42.0676 147.357 41.9031 147.574 41.736L147.706 40.878C147.588 41.065 147.452 41.2323 147.299 41.38C147.198 41.4763 147.091 41.5643 146.975 41.6439C146.893 41.7009 146.806 41.7536 146.716 41.802C146.663 41.8293 146.61 41.8547 146.558 41.8784C146.214 42.0328 145.871 42.11 145.528 42.11C145.247 42.11 144.985 42.0787 144.739 42.016C144.577 41.9745 144.422 41.9193 144.275 41.8504C143.923 41.6855 143.614 41.442 143.35 41.12C143.267 41.0191 143.19 40.9133 143.12 40.8028C143.117 40.7989 143.115 40.7949 143.112 40.791C143.053 40.8425 142.994 40.8932 142.934 40.9431C142.769 41.0813 142.6 41.2136 142.428 41.34C142.097 41.5768 141.767 41.7589 141.438 41.8865C141.055 42.0355 140.673 42.11 140.294 42.11C139.82 42.11 139.393 41.9918 139.015 41.7554C138.6 41.4966 138.243 41.0962 137.943 40.5542C137.873 40.4278 137.806 40.2938 137.742 40.152C137.546 40.4 137.357 40.6219 137.175 40.8177C137.163 40.8306 137.151 40.8434 137.139 40.8562C136.821 41.1952 136.525 41.453 136.253 41.6296C136.206 41.6602 136.16 41.6883 136.114 41.714C136.046 41.7536 135.976 41.7902 135.904 41.8238C135.497 42.0146 135.032 42.11 134.508 42.11C134.142 42.11 133.801 42.0546 133.486 41.9438C133.032 41.7841 132.632 41.5096 132.286 41.12C132.167 40.9797 132.061 40.8307 131.966 40.6732C131.96 40.6627 131.954 40.6521 131.948 40.6415C131.725 40.8417 131.496 41.0272 131.262 41.1982C131.185 41.2544 131.108 41.309 131.03 41.362C130.795 41.5249 130.55 41.6612 130.293 41.7709C129.764 41.997 129.188 42.11 128.566 42.11C127.818 42.11 127.253 41.8973 126.872 41.472C126.491 41.032 126.3 40.4013 126.3 39.58C126.3 39.5174 126.303 39.4472 126.307 39.3696C126.321 39.151 126.353 38.873 126.404 38.5354C126.406 38.5262 126.407 38.517 126.409 38.5078C126.458 38.1851 126.525 37.8092 126.608 37.38C126.627 37.2885 126.645 37.1999 126.662 37.114C126.705 36.8988 126.741 36.7013 126.772 36.5213C126.773 36.5189 126.773 36.5164 126.773 36.5139C126.854 36.0439 126.894 35.6946 126.894 35.466C126.894 35.2622 126.833 35.1469 126.712 35.1201C126.693 35.116 126.673 35.114 126.652 35.114C126.644 35.114 126.636 35.1145 126.628 35.1153C126.5 35.1289 126.34 35.2458 126.146 35.466C126.051 35.5734 125.949 35.7054 125.838 35.862C125.746 35.9942 125.653 36.1384 125.558 36.2947C125.503 36.3865 125.447 36.4825 125.391 36.5827C125.305 36.7369 125.217 36.9009 125.129 37.0748C125.126 37.0801 125.123 37.0854 125.121 37.0908C125.107 37.1186 125.093 37.1466 125.078 37.1749C125.015 37.3029 124.95 37.436 124.885 37.5742C124.876 37.5942 124.867 37.6144 124.857 37.6347C124.832 37.6884 124.807 37.7428 124.782 37.798C124.714 37.9543 124.648 38.1123 124.585 38.2719C124.497 38.4934 124.414 38.7182 124.336 38.946C124.18 39.4013 124.042 39.8693 123.924 40.35C123.913 40.3986 123.901 40.4461 123.89 40.4925C123.736 41.1044 123.557 41.5262 123.352 41.758C123.158 41.98 122.852 42.097 122.435 42.109C122.411 42.1097 122.387 42.11 122.362 42.11C121.805 42.11 121.409 41.8167 121.174 41.23C121.119 41.0823 121.07 40.9123 121.029 40.7199C121.027 40.7105 121.025 40.701 121.023 40.6914C120.909 40.7977 120.794 40.9003 120.678 40.9994C120.539 41.1181 120.399 41.2317 120.256 41.34C119.929 41.5886 119.608 41.777 119.291 41.9052C118.954 42.0417 118.623 42.11 118.298 42.11C117.97 42.11 117.658 42.0358 117.364 41.8873C117.224 41.8169 117.088 41.7298 116.956 41.626C116.686 41.3957 116.46 41.1108 116.278 40.7711C116.194 40.6133 116.119 40.4435 116.054 40.262C115.617 40.9684 115.115 41.4722 114.547 41.7736C114.489 41.8043 114.431 41.8328 114.372 41.8592C113.999 42.0264 113.599 42.11 113.172 42.11C112.263 42.11 111.537 41.78 110.994 41.12C110.87 40.9685 110.759 40.8061 110.663 40.6329C110.362 40.0891 110.201 39.4385 110.182 38.6812C109.768 38.8404 109.334 38.92 108.88 38.92C108.63 38.92 108.399 38.8995 108.187 38.8585C107.74 38.7721 107.377 38.5946 107.098 38.326C106.924 38.1516 106.788 37.9502 106.69 37.7218C106.611 37.5349 106.556 37.3299 106.528 37.1069C106.512 36.9835 106.504 36.8545 106.504 36.72C106.504 36.6825 106.505 36.645 106.506 36.6075C106.506 36.6049 106.507 36.6022 106.507 36.5996C106.513 36.4197 106.534 36.2399 106.57 36.06C106.6 35.7667 106.614 35.5687 106.614 35.466C106.614 35.2313 106.534 35.114 106.372 35.114C106.372 35.114 106.371 35.114 106.37 35.114C106.346 35.1142 106.32 35.1175 106.293 35.124C106.158 35.1568 105.999 35.2708 105.816 35.466C105.719 35.5699 105.615 35.6968 105.504 35.8467C105.5 35.8518 105.496 35.8569 105.492 35.862C105.472 35.8895 105.452 35.9176 105.432 35.9462C105.36 36.0494 105.288 36.1594 105.215 36.2762C105.165 36.3582 105.114 36.4436 105.063 36.5323C105.028 36.5933 104.993 36.6558 104.958 36.72C104.88 36.8635 104.802 37.0149 104.724 37.1742C104.672 37.282 104.619 37.3935 104.566 37.5085C104.556 37.5299 104.546 37.5513 104.537 37.5729C104.527 37.5932 104.518 37.6136 104.509 37.6341ZM105.798 39.8477C105.696 40.1628 105.605 40.486 105.523 40.8174C105.353 41.5396 105.077 42.4321 104.509 43.0784C103.776 43.9127 102.777 44.11 102.016 44.11C101.368 44.11 100.698 43.9318 100.111 43.4971C99.5438 43.077 99.1908 42.5187 98.9738 41.9786C98.8225 42.1455 98.6624 42.3063 98.4934 42.4605C97.3659 43.5035 96.0016 44.11 94.456 44.11C92.3769 44.11 90.592 43.2612 89.505 41.4417C88.5629 39.8647 88.21 37.8088 88.21 35.51C88.21 33.455 88.4646 31.2614 88.9572 28.9366C89.4587 26.555 90.2033 24.4545 91.2265 22.6765L91.2295 22.6713C92.3175 20.7936 93.9373 19.32 96.194 19.32C97.5631 19.32 98.6958 19.9666 99.4536 21.0432C100.169 22.0453 100.438 23.2352 100.438 24.444C100.438 25.9049 100.161 27.342 99.6239 28.7449C99.3505 29.4593 98.995 30.1717 98.5653 30.8821C98.8751 31.1243 99.1627 31.4049 99.4256 31.723C99.4783 31.7859 99.5296 31.8496 99.5795 31.914C99.8363 31.3352 100.24 30.7854 100.851 30.3854C101.605 29.8864 102.466 29.748 103.226 29.748C103.56 29.748 104.269 29.7664 104.902 30.162C105.103 30.2873 105.268 30.4298 105.405 30.5816C105.433 30.5646 105.46 30.5478 105.488 30.5313L105.498 30.5257L105.507 30.5202C106.283 30.0745 107.164 29.748 108.11 29.748C108.895 29.748 109.851 29.9456 110.597 30.6913C110.888 30.9824 111.096 31.3057 111.241 31.6382C111.479 31.4256 111.731 31.2257 111.995 31.0393C113.206 30.1806 114.564 29.704 116.032 29.704C116.413 29.704 117.369 29.7451 118.077 30.4764C118.6 30.4929 119.285 30.603 119.895 31.039C120.023 31.1307 120.139 31.2297 120.243 31.3347C120.483 30.9764 120.795 30.6486 121.196 30.3855C121.95 29.8864 122.812 29.748 123.572 29.748C123.905 29.748 124.615 29.7664 125.248 30.162C125.449 30.2873 125.614 30.4298 125.751 30.5816C125.778 30.5646 125.806 30.5478 125.834 30.5313L125.844 30.5257L125.853 30.5202C126.628 30.0745 127.51 29.748 128.456 29.748C129.241 29.748 130.197 29.9456 130.943 30.6913C131.421 31.1691 131.673 31.7332 131.793 32.2834C132.169 31.8735 132.585 31.5007 133.042 31.1675C133.756 30.6443 134.527 30.2501 135.348 29.9877C135.665 27.6117 136.172 25.4871 136.889 23.6344L136.892 23.6272C137.751 21.43 139.265 19.32 141.856 19.32C143.207 19.32 144.298 19.9812 145.033 20.9983C145.823 22.0694 146.056 23.4382 146.056 24.774C146.056 26.5721 145.653 28.547 144.922 30.669C145.984 30.0447 147.146 29.704 148.388 29.704C148.769 29.704 149.724 29.7451 150.432 30.476C150.885 30.4886 151.593 30.5712 152.21 31.0201C152.366 31.1285 152.5 31.2473 152.614 31.3727C152.836 31.0196 153.125 30.6859 153.504 30.4126C154.282 29.8506 155.218 29.748 155.929 29.748C156.293 29.748 157.154 29.7727 157.857 30.3554C157.991 30.4636 158.107 30.58 158.208 30.702C158.284 30.6257 158.365 30.5521 158.451 30.4818L158.474 30.4632L158.498 30.4453C159.24 29.8779 160.114 29.748 160.813 29.748C161.175 29.748 161.903 29.7697 162.552 30.1687C162.572 30.1804 162.591 30.1923 162.611 30.2044C162.399 29.7108 162.309 29.1844 162.309 28.668C162.309 27.5597 162.771 26.581 163.606 25.8695C164.419 25.1744 165.401 24.864 166.421 24.864C167.289 24.864 168.199 25.0793 168.973 25.685C169.862 26.3807 170.247 27.3737 170.247 28.382C170.247 29.4465 169.878 30.4777 169.031 31.2596L169.016 31.274L169 31.288C168.9 31.3766 168.797 31.4585 168.692 31.5341C168.771 31.7502 168.822 31.9744 168.845 32.1999C169.2 31.8228 169.591 31.4779 170.016 31.1675C170.73 30.6443 171.501 30.2501 172.322 29.9877C172.64 27.6117 173.147 25.4871 173.864 23.6344L173.866 23.6272C174.726 21.43 176.24 19.32 178.831 19.32C180.182 19.32 181.272 19.9812 182.008 20.9983C182.798 22.0694 183.031 23.4382 183.031 24.774C183.031 26.4606 182.676 28.3027 182.029 30.2758C182.85 29.9228 183.731 29.748 184.653 29.748C185.931 29.748 187.152 30.1483 188.103 31.0934C189.076 32.0442 189.469 33.2839 189.469 34.564C189.469 34.7522 189.46 34.9377 189.443 35.1204C189.566 35.1032 189.692 35.094 189.823 35.094C190.759 35.094 191.522 35.5865 191.959 36.2969C192.347 36.9063 192.439 37.5658 192.439 38.084C192.439 38.9625 192.231 39.9356 191.553 40.7342C190.811 41.6312 189.829 42.3807 188.693 43.0166C187.411 43.7426 186.016 44.11 184.543 44.11C183.054 44.11 181.654 43.7887 180.481 43.0265C179.531 43.6863 178.45 44.11 177.269 44.11C176.29 44.11 175.367 43.8128 174.577 43.2073C174.559 43.1934 174.541 43.1794 174.524 43.1653C174.379 43.2698 174.231 43.3653 174.082 43.4502C173.276 43.9149 172.386 44.11 171.483 44.11C170.471 44.11 169.541 43.8363 168.742 43.3032C167.888 43.8069 166.968 44.11 165.981 44.11C164.997 44.11 164.051 43.8607 163.268 43.2995C162.312 43.8448 161.252 44.11 160.131 44.11C159.241 44.11 158.399 43.8518 157.718 43.3113C157.06 43.7938 156.269 44.11 155.357 44.11C154.206 44.11 153.242 43.6404 152.518 42.8787C152.491 42.8978 152.464 42.9163 152.439 42.9345L152.423 42.9454L151.69 43.4378C151.134 46.1968 150.404 48.5115 149.459 50.3134C148.381 52.4116 146.686 54.01 144.252 54.01C143.052 54.01 141.914 53.6169 141.023 52.7313C140.115 51.8459 139.722 50.7009 139.722 49.502C139.722 47.927 140.341 46.4152 141.302 45.0081L141.308 44.9986C141.609 44.5644 141.975 44.1151 142.403 43.6511C141.745 43.9413 141.04 44.11 140.294 44.11C139.315 44.11 138.392 43.8128 137.603 43.2073C137.585 43.1934 137.567 43.1794 137.549 43.1653C137.404 43.2698 137.257 43.3654 137.107 43.4503C136.301 43.9149 135.411 44.11 134.508 44.11C133.483 44.11 132.542 43.8289 131.735 43.2815C130.771 43.839 129.7 44.11 128.566 44.11C127.436 44.11 126.252 43.7767 125.383 42.8071L125.372 42.7946L125.361 42.7819C125.307 42.7197 125.255 42.6564 125.206 42.5922C125.103 42.7641 124.987 42.9279 124.854 43.0784C124.122 43.9127 123.123 44.11 122.362 44.11C121.735 44.11 121.088 43.9435 120.516 43.5398C119.841 43.8907 119.099 44.11 118.298 44.11C117.395 44.11 116.573 43.8186 115.871 43.3122C115.1 43.8165 114.2 44.11 113.172 44.11C111.709 44.11 110.399 43.5452 109.449 42.3902C109.076 41.9362 108.795 41.4395 108.593 40.9134C107.613 40.868 106.607 40.5812 105.798 39.8477ZM167.293 30.0507C167.432 29.9793 167.559 29.8925 167.675 29.79C168.056 29.438 168.247 28.9687 168.247 28.382C168.247 27.898 168.078 27.524 167.741 27.26C167.403 26.996 166.963 26.864 166.421 26.864C165.819 26.864 165.313 27.04 164.903 27.392C164.507 27.7293 164.309 28.1547 164.309 28.668C164.309 29.1637 164.452 29.5568 164.74 29.8474C164.75 29.8577 164.76 29.8679 164.771 29.878C165.005 30.0896 165.327 30.2209 165.739 30.2718C165.869 30.2879 166.008 30.296 166.157 30.296C166.596 30.296 166.975 30.2142 167.293 30.0507ZM113.023 39.2307C113.065 39.3593 113.122 39.4684 113.194 39.558C113.352 39.7399 113.555 39.8466 113.802 39.8781C113.854 39.8847 113.908 39.888 113.964 39.888C114.242 39.888 114.509 39.7467 114.765 39.464C114.806 39.4183 114.847 39.369 114.888 39.316C115.181 38.9347 115.394 38.4287 115.526 37.798L116.34 33.75C115.956 33.7591 115.589 33.8537 115.24 34.0338C115.028 34.1426 114.823 34.2827 114.624 34.454C114.496 34.5636 114.375 34.6823 114.26 34.81C114.181 34.8979 114.104 34.99 114.031 35.0864C113.805 35.3845 113.608 35.7237 113.44 36.104C113.424 36.1403 113.408 36.177 113.392 36.214C113.127 36.8458 112.976 37.5102 112.939 38.2072C112.939 38.2109 112.939 38.2145 112.938 38.2181C112.933 38.3266 112.93 38.4359 112.93 38.546C112.93 38.8155 112.961 39.0437 113.023 39.2307ZM135.254 39.8878C135.262 39.8879 135.27 39.888 135.278 39.888C135.557 39.888 135.836 39.778 136.114 39.558C136.23 39.4606 136.358 39.3302 136.499 39.167C136.698 38.9372 136.921 38.6422 137.17 38.282C137.139 38.1123 137.111 37.9383 137.086 37.7598C137.019 37.2783 136.977 36.7649 136.96 36.2196C136.953 36.0239 136.95 35.824 136.95 35.62C136.95 35.268 136.965 34.696 136.994 33.904C136.188 34.1533 135.513 34.696 134.97 35.532C134.964 35.5424 134.957 35.5528 134.95 35.5632C134.875 35.6828 134.804 35.8044 134.74 35.928C134.626 36.147 134.529 36.3724 134.449 36.604C134.436 36.6427 134.423 36.6816 134.411 36.7206C134.275 37.1534 134.198 37.6079 134.182 38.084C134.179 38.1496 134.178 38.2156 134.178 38.282C134.178 39.2841 134.499 39.8173 135.142 39.8814C135.178 39.8851 135.216 39.8872 135.254 39.8878ZM139.634 33.86C140.286 32.4409 140.808 31.1325 141.201 29.9347C141.303 29.6249 141.396 29.3224 141.48 29.0274C141.481 29.0232 141.482 29.019 141.484 29.0147C141.872 27.6554 142.076 26.4535 142.096 25.4092C142.097 25.3881 142.097 25.3671 142.097 25.3461C142.098 25.3443 142.098 25.3425 142.098 25.3407C142.098 25.3056 142.098 25.2707 142.098 25.236C142.098 25.0711 142.094 24.9171 142.085 24.774C142.076 24.6324 142.063 24.5014 142.045 24.3812C142.02 24.2124 141.986 24.0647 141.944 23.938C141.856 23.63 141.746 23.476 141.614 23.476C141.591 23.476 141.569 23.4793 141.546 23.486C141.381 23.5342 141.216 23.7574 141.051 24.1555C141.045 24.1695 141.039 24.1838 141.033 24.1983C141.027 24.2146 141.02 24.2313 141.014 24.2482C140.935 24.45 140.857 24.6912 140.778 24.972C140.754 25.0576 140.73 25.1455 140.706 25.2357C140.706 25.2356 140.706 25.2358 140.706 25.2357C140.458 26.1818 140.24 27.3847 140.052 28.844C139.897 30.1448 139.776 31.4942 139.689 32.8922C139.669 33.2122 139.651 33.5349 139.634 33.86ZM144.12 47.9224C144.042 48.1142 143.983 48.2987 143.942 48.476C143.899 48.6649 143.878 48.8456 143.878 49.018C143.878 49.2673 143.922 49.4727 144.01 49.634C144.112 49.7953 144.274 49.876 144.494 49.876C144.789 49.876 145.113 49.59 145.466 49.018C145.516 48.9366 145.567 48.8494 145.619 48.7563C145.654 48.6923 145.69 48.6255 145.726 48.556C145.832 48.3571 145.937 48.1317 146.04 47.8796C146.359 47.1074 146.666 46.0854 146.963 44.8139C146.998 44.6641 147.033 44.5108 147.068 44.354C145.938 45.322 145.124 46.1947 144.626 46.972C144.579 47.0445 144.535 47.1162 144.493 47.187C144.491 47.1901 144.489 47.1932 144.487 47.1962C144.376 47.3839 144.28 47.5657 144.199 47.7417C144.196 47.7486 144.193 47.7555 144.189 47.7623C144.165 47.8163 144.142 47.8696 144.12 47.9224ZM145.992 39.8439C146.029 39.8546 146.066 39.8633 146.105 39.8701C146.136 39.8756 146.169 39.8799 146.202 39.8829C146.24 39.8863 146.279 39.888 146.32 39.888C146.373 39.888 146.425 39.8829 146.478 39.8727C146.758 39.8183 147.028 39.618 147.288 39.272C147.596 38.8613 147.816 38.2747 147.948 37.512L148.652 33.75C148.282 33.759 147.93 33.851 147.593 34.026C147.382 34.136 147.178 34.2786 146.98 34.454C146.753 34.6481 146.547 34.8708 146.36 35.122C146.208 35.3269 146.069 35.5508 145.944 35.7937C145.874 35.928 145.809 36.0681 145.748 36.214C145.673 36.3928 145.607 36.5742 145.55 36.7583C145.54 36.7885 145.531 36.8188 145.523 36.8491C145.406 37.2485 145.333 37.6602 145.302 38.084C145.291 38.2364 145.286 38.3904 145.286 38.546C145.286 39.0007 145.374 39.338 145.55 39.558C145.671 39.6976 145.818 39.7929 145.992 39.8439ZM172.229 39.8878C172.237 39.8879 172.245 39.888 172.253 39.888C172.531 39.888 172.81 39.778 173.089 39.558C173.205 39.4606 173.333 39.3302 173.474 39.167C173.672 38.9372 173.896 38.6422 174.145 38.282C174.113 38.1123 174.085 37.9383 174.061 37.7598C173.994 37.2783 173.952 36.7649 173.934 36.2197C173.928 36.0239 173.925 35.824 173.925 35.62C173.925 35.268 173.939 34.696 173.969 33.904C173.162 34.1533 172.487 34.696 171.945 35.532C171.861 35.6616 171.785 35.7936 171.715 35.928C171.6 36.147 171.503 36.3723 171.424 36.604C171.411 36.6427 171.398 36.6816 171.385 36.7206C171.249 37.1534 171.173 37.6079 171.156 38.084C171.154 38.1496 171.153 38.2156 171.153 38.282C171.153 39.2841 171.474 39.8173 172.117 39.8814C172.153 39.8851 172.19 39.8872 172.229 39.8878ZM176.609 33.86C177.26 32.4409 177.782 31.1325 178.176 29.9347C178.277 29.6249 178.37 29.3224 178.455 29.0274C178.456 29.0232 178.457 29.019 178.458 29.0147C178.846 27.6554 179.051 26.4536 179.071 25.4092C179.072 25.3881 179.072 25.3671 179.072 25.3461C179.072 25.3443 179.072 25.3425 179.072 25.3407C179.073 25.3056 179.073 25.2707 179.073 25.236C179.073 25.0711 179.068 24.9171 179.059 24.774C179.05 24.6324 179.037 24.5015 179.019 24.3813C178.995 24.2124 178.961 24.0647 178.919 23.938C178.831 23.63 178.721 23.476 178.589 23.476C178.566 23.476 178.543 23.4793 178.521 23.486C178.355 23.5342 178.19 23.7573 178.025 24.1554C178.02 24.1695 178.014 24.1838 178.008 24.1983C178.001 24.2146 177.995 24.2313 177.988 24.2482C177.91 24.45 177.831 24.6912 177.753 24.972C177.729 25.0576 177.705 25.1455 177.681 25.2357C177.681 25.2356 177.681 25.2358 177.681 25.2357C177.432 26.1818 177.214 27.3847 177.027 28.844C176.872 30.1448 176.751 31.4942 176.663 32.8922C176.643 33.2122 176.625 33.5349 176.609 33.86ZM169.195 37.4779C169.012 37.6967 168.839 37.8988 168.677 38.084C168.647 38.1182 168.617 38.1519 168.588 38.1849C168.577 38.1978 168.565 38.2107 168.554 38.2234C168.543 38.2364 168.531 38.2492 168.52 38.262C168.48 38.3061 168.442 38.3492 168.404 38.3911M170.313 39.0115C170.246 39.177 170.159 39.3225 170.051 39.448ZM169.195 37.4779C169.216 37.4528 169.237 37.4275 169.259 37.402Z" fill="#FFF8ED"></path></g><defs><clipPath id="clip0_16018_95596"><rect width="193" height="54" fill="white"></rect></clipPath></defs></svg> 