<svg width="100" height="100" viewBox="0 0 100 100" fill="none" xmlns="http://www.w3.org/2000/svg">
<mask id="mask0_14153_90128" style="mask-type:alpha" maskUnits="userSpaceOnUse" x="0" y="0" width="100" height="100">
<path d="M0 50C0 22.3858 22.3858 0 50 0C77.6142 0 100 22.3858 100 50V100H50C22.3858 100 0 77.6142 0 50Z" fill="#007A3D"/>
</mask>
<g mask="url(#mask0_14153_90128)">
<path d="M0 50C0 22.3858 22.3858 0 50 0C77.6142 0 100 22.3858 100 50V100H50C22.3858 100 0 77.6142 0 50Z" fill="#FFF8ED"/>
<path fill-rule="evenodd" clip-rule="evenodd" d="M81.6834 35.0166C81.9599 40.2705 82.3784 49.0743 82.3784 52.5572C82.3784 56.5517 80.0106 58.6571 77.8036 58.6571H74.615C71.9131 58.6571 68.9926 57.6553 67.5289 56.9416C67.4051 57 67.2805 57.0565 67.1554 57.1112C64.2272 58.3906 60.8336 58.7292 58.2178 58.6566C56.956 58.6215 55.9629 58.0993 55.1957 57.3894C55.0191 57.9894 54.8071 58.6211 54.5661 59.275C53.8539 61.2083 52.1894 62.6843 50.5826 63.7547C48.9405 64.8485 47.1464 65.6565 45.8947 66.176L44.8317 63.6152C46.0292 63.1182 47.6278 62.3914 49.0454 61.4471C50.4982 60.4794 51.5602 59.4138 51.9644 58.3165C52.4345 57.0407 52.752 55.9464 52.9056 55.0863C53.0519 54.267 53.0126 53.8506 52.9759 53.7036L52.9474 53.6251L52.9423 53.6132L52.9263 53.5673L52.9261 53.5666L52.9243 53.5614L52.916 53.5378C52.9084 53.5164 52.8967 53.4836 52.8813 53.4407C52.8504 53.3549 52.8043 53.2285 52.7449 53.0701C52.6259 52.7528 52.4544 52.3094 52.2455 51.8081C51.8201 50.787 51.2685 49.5965 50.7128 48.7321L53.0451 47.2327C53.7371 48.3092 54.3639 49.6834 54.8049 50.7417C54.984 51.1716 55.1373 51.5611 55.2569 51.8743L55.2819 51.8665C55.3618 52.122 55.4458 52.3763 55.5349 52.626C55.5583 52.6841 55.5797 52.7432 55.5994 52.8032C55.8727 53.5412 56.1929 54.2305 56.5825 54.7795C57.117 55.5328 57.6624 55.8674 58.2948 55.885C60.3737 55.9427 62.8925 55.7045 65.1156 54.9331L62.078 52.233C61.683 51.9175 61.1058 51.3717 60.6947 50.7513C60.4867 50.4374 60.2498 49.9991 60.1713 49.4897C60.0834 48.9191 60.2005 48.2366 60.7418 47.6952C61.2319 47.2051 62.1514 46.6547 63.1322 46.2003C64.1574 45.7253 65.4306 45.2714 66.7276 45.0553C67.9994 44.8433 69.4607 44.8321 70.7352 45.433C72.1047 46.0786 73.0385 47.3253 73.3475 49.1354L73.3859 49.3599L73.3503 49.5849C72.9745 51.9654 71.8528 53.7626 70.3606 55.0962C71.6095 55.5145 73.1857 55.8844 74.615 55.8844H77.8036C78.0919 55.8844 79.6058 55.4389 79.6058 52.5572C79.6058 49.164 79.1926 40.4446 78.9145 35.1623L81.6834 35.0166ZM67.792 53.6025C69.2092 52.607 70.2173 51.2429 70.5714 49.3838C70.374 48.5098 69.9699 48.1375 69.5529 47.941C69.0079 47.684 68.1991 47.6209 67.1834 47.7902C66.193 47.9553 65.1615 48.3159 64.2978 48.716C63.7822 48.9549 63.381 49.1823 63.1059 49.3588C63.3166 49.6318 63.6114 49.9119 63.8263 50.0808L63.8594 50.1068L67.792 53.6025ZM17.998 44.071C16.8251 44.2854 15.5264 44.6475 14.3183 45.2118C12.3416 46.135 10.3325 47.7422 9.8914 50.3885C9.65562 51.8032 10.0526 53.0124 10.9619 53.894C11.7943 54.7011 12.937 55.1185 14.021 55.3428C15.5491 55.659 17.3043 55.6589 18.8307 55.5314C19.0523 55.9857 19.3515 56.4447 19.7427 56.8644C20.6311 57.8174 21.9532 58.5184 23.7374 58.5184H26.1141C26.7629 58.5757 27.9434 58.4553 29.0888 57.9262C29.7461 57.6226 30.4188 57.1699 30.9787 56.523C31.18 56.837 31.4051 57.1145 31.6571 57.3563C32.7388 58.3937 34.0456 58.5184 35.1053 58.5184H39.2643C41.2845 58.5184 42.7777 57.5004 43.5913 56.0388C44.371 54.6382 44.4962 52.9037 44.0658 51.3544L44.0628 51.3435L42.2574 45.2328L39.5983 46.0184L41.3971 52.1066C41.6563 53.0494 41.5453 54.0138 41.1687 54.6902C40.8248 55.3081 40.2385 55.7458 39.2643 55.7458H35.1053C34.224 55.7458 33.8534 55.6209 33.5765 55.3553C33.2515 55.0436 32.818 54.3056 32.5007 52.4822C32.6501 51.747 32.7594 51.174 32.8378 50.7356C32.9019 50.377 32.9464 50.1024 32.9754 49.8992C32.9994 49.7318 33.0258 49.5292 33.0258 49.3687H30.2531C30.2531 49.3554 30.2533 49.345 30.2535 49.3385C30.2536 49.3333 30.2536 49.3305 30.2535 49.3305C30.2533 49.3305 30.2529 49.3343 30.2519 49.3427C30.2495 49.3641 30.2438 49.4152 30.2306 49.5071C30.2077 49.6678 30.169 49.9084 30.1084 50.2476C29.9873 50.9249 29.7827 51.9713 29.4521 53.5144C29.2308 54.5471 28.6113 55.0927 27.9262 55.4091C27.5702 55.5736 27.2037 55.6695 26.8923 55.7184C26.5749 55.7682 26.3859 55.7587 26.3707 55.758C26.37 55.7579 26.3697 55.7579 26.3698 55.7579L26.2785 55.7458H23.7374C22.7488 55.7458 22.1532 55.3839 21.7708 54.9738C21.3779 54.5523 21.1701 54.0305 21.0993 53.6638L20.6866 41.558L17.9156 41.6524L17.998 44.071ZM18.2953 52.7915C17.0386 52.8782 15.6923 52.8572 14.5827 52.6276C13.7236 52.4499 13.1784 52.1811 12.8919 51.9034C12.6823 51.7002 12.5294 51.4259 12.6263 50.8443C12.8507 49.498 13.8915 48.4712 15.4916 47.7239C16.3244 47.3349 17.2347 47.0602 18.0937 46.878L18.2953 52.7915Z" fill="#152361"/>
<path fill-rule="evenodd" clip-rule="evenodd" d="M87.2297 58.5674L86.3979 35.1384L89.1689 35.04L90.0007 58.469L87.2297 58.5674Z" fill="#152361"/>
<circle cx="14.584" cy="36.1987" r="1.80223" fill="#152361"/>
<circle cx="18.7417" cy="36.1987" r="1.80223" fill="#152361"/>
<circle cx="28.4487" cy="63.0932" r="1.80223" fill="#152361"/>
<circle cx="32.8852" cy="63.0932" r="1.80223" fill="#152361"/>
<circle cx="40.3701" cy="63.0932" r="1.80223" fill="#152361"/>
</g>
</svg>
