<svg width="100" height="100" viewBox="0 0 100 100" fill="none" xmlns="http://www.w3.org/2000/svg">
<mask id="mask0_14153_90147" style="mask-type:alpha" maskUnits="userSpaceOnUse" x="0" y="0" width="100" height="100">
<path d="M0 50C0 22.3858 22.3858 0 50 0C77.6142 0 100 22.3858 100 50V100H50C22.3858 100 0 77.6142 0 50Z" fill="#007A3D"/>
</mask>
<g mask="url(#mask0_14153_90147)">
<path d="M0 50C0 22.3858 22.3858 0 50 0C77.6142 0 100 22.3858 100 50V100H50C22.3858 100 0 77.6142 0 50Z" fill="#007A3D"/>
<path d="M152 0H-48V100H152V0Z" fill="#002395"/>
<path d="M5.00049 0H105V100L5.00049 0Z" fill="#FECB00"/>
<path d="M-6.07334 19.051L-0.498341 1.87598L5.07666 19.051L-9.54834 8.42598H8.52666L-6.07334 19.051Z" fill="white"/>
<path d="M6.42666 31.551L12.0017 14.376L17.5767 31.551L2.95166 20.926H21.0267L6.42666 31.551Z" fill="white"/>
<path d="M18.9267 44.051L24.5017 26.876L30.0767 44.051L15.4517 33.426H33.5267L18.9267 44.051Z" fill="white"/>
<path d="M31.4262 56.5509L37.0012 39.376L42.5762 56.5509L27.9512 45.926H46.0262L31.4262 56.5509Z" fill="white"/>
<path d="M43.9247 69.051L49.4997 51.876L55.0747 69.051L40.4497 58.426H58.5247L43.9247 69.051Z" fill="white"/>
<path d="M56.4247 81.551L61.9997 64.376L67.5747 81.551L52.9497 70.926H71.0247L56.4247 81.551Z" fill="white"/>
<path d="M68.9247 94.051L74.4997 76.876L80.0747 94.051L65.4497 83.426H83.5247L68.9247 94.051Z" fill="white"/>
<path d="M81.4247 106.551L86.9997 89.376L92.5747 106.551L77.9497 95.926H96.0247L81.4247 106.551Z" fill="white"/>
</g>
</svg>
