<svg width="100" height="100" viewBox="0 0 100 100" fill="none" xmlns="http://www.w3.org/2000/svg">
<mask id="mask0_14153_90104" style="mask-type:alpha" maskUnits="userSpaceOnUse" x="0" y="0" width="100" height="100">
<path d="M0 50C0 22.3858 22.3858 0 50 0C77.6142 0 100 22.3858 100 50V100H50C22.3858 100 0 77.6142 0 50Z" fill="#DE2910"/>
</mask>
<g mask="url(#mask0_14153_90104)">
<path d="M0 50C0 22.3858 22.3858 0 50 0C77.6142 0 100 22.3858 100 50V100H50C22.3858 100 0 77.6142 0 50Z" fill="#DE2910"/>
<g clip-path="url(#clip0_14153_90104)">
<path d="M158.75 2.5H8.75V102.5H158.75V2.5Z" fill="#DE2910"/>
<path d="M33.7486 12.5L42.5653 39.6333L19.4819 22.8667H48.0153L24.9319 39.6333L33.7486 12.5Z" fill="#FFDE00"/>
<path d="M60.6997 7.89941L59.8664 17.3661L54.9664 9.21608L63.7164 12.9327L54.4497 15.0661L60.6997 7.89941Z" fill="#FFDE00"/>
<path d="M72.3322 19.0157L67.8822 27.4157L66.5322 17.999L73.1489 24.8324L63.7822 23.199L72.3322 19.0157Z" fill="#FFDE00"/>
<path d="M73.4501 35.7833L65.9668 41.65L68.5835 32.5L71.8501 41.4333L63.9668 36.1167L73.4501 35.7833Z" fill="#FFDE00"/>
<path d="M60.5168 42.8164L60.0835 52.3164L54.8502 44.3664L63.7502 47.7164L54.5835 50.2331L60.5168 42.8164Z" fill="#FFDE00"/>
</g>
</g>
<defs>
<clipPath id="clip0_14153_90104">
<rect width="150" height="100" fill="white" transform="translate(8.75 2.5)"/>
</clipPath>
</defs>
</svg>
