<svg width="100" height="100" viewBox="0 0 100 100" fill="none" xmlns="http://www.w3.org/2000/svg">
<mask id="mask0_14153_90162" style="mask-type:alpha" maskUnits="userSpaceOnUse" x="0" y="0" width="100" height="100">
<path d="M0 50C0 22.3858 22.3858 0 50 0C77.6142 0 100 22.3858 100 50V100H50C22.3858 100 0 77.6142 0 50Z" fill="#007A3D"/>
</mask>
<g mask="url(#mask0_14153_90162)">
<path d="M0 50C0 22.3858 22.3858 0 50 0C77.6142 0 100 22.3858 100 50V100H50C22.3858 100 0 77.6142 0 50Z" fill="#FFF8ED"/>
<path d="M136 0H-14V100H136V0Z" fill="#E30A17"/>
<path d="M39.125 74.999C52.9321 74.999 64.125 63.8061 64.125 49.999C64.125 36.1919 52.9321 24.999 39.125 24.999C25.3179 24.999 14.125 36.1919 14.125 49.999C14.125 63.8061 25.3179 74.999 39.125 74.999Z" fill="white"/>
<path d="M45.3751 70.001C56.4208 70.001 65.3752 61.0467 65.3752 50.001C65.3752 38.9553 56.4208 30.001 45.3751 30.001C34.3293 30.001 25.375 38.9553 25.375 50.001C25.375 61.0467 34.3293 70.001 45.3751 70.001Z" fill="#E30A17"/>
<path d="M58.9165 50.0015L81.529 57.3488L67.5536 38.1133V61.8897L81.529 42.6541L58.9165 50.0015Z" fill="white"/>
</g>
</svg>
